<?xml version="1.0" standalone="no"?>
<!DOCTYPE svg PUBLIC "-//W3C//DTD SVG 1.1//EN" "http://www.w3.org/Graphics/SVG/1.1/DTD/svg11.dtd" >
<!--
2013-9-30: Created.
-->
<svg>
<metadata>
Created by iconfont
</metadata>
<defs>

<font id="tciconfont" horiz-adv-x="1024" >
  <font-face
    font-family="tciconfont"
    font-weight="500"
    font-stretch="normal"
    units-per-em="1024"
    ascent="896"
    descent="-128"
  />
    <missing-glyph />
    
    <glyph glyph-name="hot" unicode="&#58921;" d="M349.256964-38.77486299999998c85.868693 0 187.258894-0.054235 298.438043-0.054235 462.859813 261.864056 115.140367 653.721769 54.593386 697.856965 20.164249-44.13622 24.026206-118.839619-16.784268-155.144476C616.483144 765.533576 445.893908 819.160961 445.893908 819.160961c20.164249-134.927015-73.147974-282.510282-163.134451-392.768455-3.164063 53.788044-6.54302 90.951455-34.80469 142.43399-6.328126-97.763604-81.031525-177.454598-101.30322-275.378861-27.40414-132.620483 20.539802-229.740428 202.551182-332.330968L349.256964-38.77486299999998z"  horiz-adv-x="1024" />

    
    <glyph glyph-name="nav__message" unicode="&#58937;" d="M266.024819 342.000444c-42.324968 0-76.759221 34.435277-76.759221 76.763314 0 42.324968 34.434254 76.759221 76.759221 76.759221s76.759221-34.434254 76.759221-76.759221C342.78404 376.43572099999994 308.35081 342.000444 266.024819 342.000444zM266.024819 458.343195c-21.824051 0-39.579437-17.755386-39.579437-39.579437 0-21.827121 17.755386-39.58353 39.579437-39.58353s39.579437 17.757432 39.579437 39.58353C305.604256 440.587809 287.84887 458.343195 266.024819 458.343195zM521.82067 342.000444c-42.324968 0-76.759221 34.435277-76.759221 76.763314 0 42.324968 34.434254 76.759221 76.759221 76.759221s76.759221-34.434254 76.759221-76.759221C598.579891 376.43572099999994 564.146661 342.000444 521.82067 342.000444zM521.82067 458.343195c-21.824051 0-39.579437-17.755386-39.579437-39.579437 0-21.827121 17.755386-39.58353 39.579437-39.58353s39.58046 17.757432 39.58046 39.58353C561.40113 440.587809 543.645744 458.343195 521.82067 458.343195zM772.168438 342.000444c-42.327014 0-76.763314 34.435277-76.763314 76.763314 0 42.324968 34.435277 76.759221 76.763314 76.759221 42.324968 0 76.759221-34.434254 76.759221-76.759221C848.927659 376.43572099999994 814.493405 342.000444 772.168438 342.000444zM772.168438 458.343195c-21.826098 0-39.584554-17.755386-39.584554-39.579437 0-21.827121 17.758456-39.58353 39.584554-39.58353 21.824051 0 39.58046 17.757432 39.58046 39.58353C811.748898 440.587809 793.992489 458.343195 772.168438 458.343195zM287.374056-9.644405000000006c-3.447519 0-6.933923 0.958838-10.048867 2.963495-8.631588 5.559623-11.122315 17.062608-5.562692 25.694195 17.160845 26.643823 50.127677 44.535309 97.987708 53.179177 32.118512 5.801123 59.942207 5.307889 63.439868 5.214768l431.729815 0c35.307134 0 64.031339 28.725228 64.031339 64.032362L928.951227 668.151665c0 35.307134-28.724205 64.031339-64.031339 64.031339L173.274392 732.183004c-35.307134 0-64.031339-28.724205-64.031339-64.031339l0-526.71105c0-33.039487 24.747637-60.429301 57.565067-63.711044 2.136663-0.212848 4.314259-0.321318 6.466272-0.321318l51.903114 0c10.266831 0 18.590404-8.322549 18.590404-18.58938s-8.322549-18.58938-18.590404-18.58938l-51.903114 0c-3.37998 0-6.798846 0.169869-10.161431 0.50449-24.855084 2.485611-47.832402 14.06125-64.702628 32.595372-16.989953 18.665105-26.347065 42.85504-26.347065 68.112284L72.063269 668.151665c0 55.80805 45.403073 101.211123 101.211123 101.211123l691.645496 0c55.80805 0 101.2101-45.403073 101.2101-101.211123l0-526.71105c0-55.80805-45.402049-101.211123-101.2101-101.211123L432.639534 40.22949200000005l-0.293689 0.00921c-0.24764 0.007163-26.750247 0.725524-56.611346-4.746094-25.412786-4.65502-58.657958-14.784728-72.715115-36.609803C299.466466-6.634861999999998 293.482171-9.644405000000006 287.374056-9.644405000000006z"  horiz-adv-x="1024" />

    
    <glyph glyph-name="bofang" unicode="&#58899;" d="M512 832C264.576 832 64 631.424 64 384s200.576-448 448-448 448 200.576 448 448S759.424 832 512 832zM414.656 169.728 414.656 598.272l311.616-190.464L414.656 169.728z"  horiz-adv-x="1024" />

    
    <glyph glyph-name="114" unicode="&#59045;" d="M241.782695 411.021423L79.653131 411.021423l0-54.042847 162.130587 0L241.783719 411.021423zM241.782695 573.152011L79.653131 573.152011l0-54.042847 162.130587 0L241.783719 573.152011zM836.260152 816.346869L241.782695 816.346869c-59.696614 0-108.086717-48.393173-108.086717-108.086717l0-27.021423 54.042847 0c0 44.772716 36.292578 81.065294 81.065294 81.065294l540.433586 0c44.769646 0 81.065294-36.292578 81.065294-81.065294l0-594.477456c0-44.769646-36.295648-81.065294-81.065294-81.065294L268.805142 5.695977999999968c-44.772716 0-81.065294 36.295648-81.065294 81.065294L133.695978 86.76127199999996l0-27.021423c0-59.696614 48.390104-108.086717 108.086717-108.086717l594.477456 0c59.696614 0 108.086717 48.390104 108.086717 108.086717l0 648.520303C944.346869 767.953695 895.956765 816.346869 836.260152 816.346869zM349.869413 194.84798899999998l54.042847 0c0 74.617441 60.490699 135.108141 135.108141 135.108141s135.108141-60.490699 135.108141-135.108141l54.042847 0c0 72.761164-41.09086 135.915529-101.325733 167.55411 28.939099 24.780383 47.282886 61.57745 47.282886 102.662171 0 74.617441-60.490699 135.108141-135.108141 135.108141S403.913283 539.682735 403.913283 465.065294c0-41.085744 18.343787-77.882811 47.282886-102.662171C390.960273 330.764542 349.869413 267.610176 349.869413 194.84798899999998zM539.021423 546.130587c44.769646 0 81.065294-36.295648 81.065294-81.065294 0-44.772716-36.295648-81.065294-81.065294-81.065294s-81.065294 36.292578-81.065294 81.065294C457.95613 509.83494 494.251777 546.130587 539.021423 546.130587zM241.782695 248.89185899999995L79.653131 248.89185899999995l0-54.042847 162.130587 0L241.783719 248.89185899999995z"  horiz-adv-x="1024" />

    
    <glyph glyph-name="dingwei_shi" unicode="&#58931;" d="M510.015809 766.604978c-144.147004 0-261.006526-116.859521-261.006526-261.006526 0-144.147004 261.006526-498.286674 261.006526-498.286674s261.006526 354.138646 261.006526 498.286674C771.023358 649.745457 654.163837 766.604978 510.015809 766.604978zM510.015809 377.553171c-70.723761 0-128.045281 57.32152-128.045281 128.045281s57.32152 128.044258 128.045281 128.044258 128.045281-57.32152 128.045281-128.044258S580.739571 377.553171 510.015809 377.553171z"  horiz-adv-x="1024" />

    
    <glyph glyph-name="pinche_new" unicode="&#60677;" d="M832.128 768c0 0-158.784 64-319.296 64-158.784 0-287.36-64-287.36-64C190.144 768 129.6 739.328 129.6 704l0-672c0-35.328 28.608-64 63.872-64l0-64c0-17.664 14.272-32 31.936-32l62.656 0C305.728-128 320-113.66399999999999 320-96l0 64 384 0 0-64c0-17.664 14.336-32 31.936-32l64.256 0c17.664 0 31.936 14.336 31.936 32l0 64c35.328 0 63.872 28.672 63.872 63.936l0 672C896 739.328 867.456 768 832.128 768zM385.088 768l255.488 0c17.664 0 31.936-14.336 31.936-32 0-17.664-14.272-32-31.936-32L385.088 704C367.488 704 353.152 718.336 353.152 736 353.152 753.664 367.488 768 385.088 768zM256 128c-35.328 0-64 28.672-64 64 0 35.328 28.672 64 64 64s64-28.672 64-64C320 156.67200000000003 291.328 128 256 128zM768 128c-35.328 0-64 28.672-64 64 0 35.328 28.672 64 64 64s64-28.672 64-64C832 156.67200000000003 803.328 128 768 128zM832.128 576l0-160c0-17.664-14.272-32-31.936-32L225.472 384C207.808 384 193.536 398.336 193.536 416l0 192c0 17.664 14.336 32 31.936 32l574.784 0c17.664 0 31.936-14.336 31.936-32L832.192 576z"  horiz-adv-x="1024" />

    
    <glyph glyph-name="xiangqing__btn" unicode="&#58903;" d="M238.886227 699.499627l0-193.07946L64.665277 384l174.22095-117.729332L238.886227 68.50037299999997 959.332676 68.50037299999997 959.332676 699.499627 238.886227 699.499627zM436.061982 299.24057100000005c-49.730635 0-90.055039 40.33873-90.055039 90.057085 0 49.745984 40.324404 90.056062 90.055039 90.056062 49.735751 0 90.057085-40.311101 90.057085-90.056062C526.119067 339.579301 485.79671 299.24057100000005 436.061982 299.24057100000005zM770.102894 299.24057100000005c-49.732681 0-90.056062 40.33873-90.056062 90.057085 0 49.745984 40.323381 90.056062 90.056062 90.056062s90.055039-40.311101 90.055039-90.056062C860.157933 339.579301 819.835575 299.24057100000005 770.102894 299.24057100000005z"  horiz-adv-x="1024" />

    
    <glyph glyph-name="jiantou__xia" unicode="&#58996;" d="M511.700683 256.57688900000005L191.917496 576.403055 319.830771 576.403055 511.700683 384.284479 703.570595 576.403055 831.48387 576.403055Z"  horiz-adv-x="1024" />

    
    <glyph glyph-name="guanzu" unicode="&#58891;" d="M1002.656 494.144l-339.04 49.28-151.616 307.232-151.616-307.232-339.04-49.28 245.344-239.136-57.92-337.664 303.264 159.424 303.264-159.424-57.92 337.664 245.344 239.136zM512 135.45600000000002l-230.72-123.424 44.064 261.408-186.656 185.152 257.952 38.144 115.36 237.856 115.36-237.856 257.952-38.144-186.656-185.152 44.064-261.408-230.72 123.424z"  horiz-adv-x="1024" />

    
    <glyph glyph-name="shuaxin" unicode="&#58929;" d="M698.879266 118.027c-56.825-40.33-123.34-60.55-191.357-59.625-8.99 0.095-17.93 0.575-26.767 1.35-3.597 0.345-7.19 0.95-10.84 1.395-6.94 0.945-13.88 1.895-20.622 3.22-4.195 0.805-8.292 1.875-12.385 2.845-6.642 1.575-13.232 3.175-19.727 5.125-3.095 0.97-6.14 2.095-9.237 3.145-7.44 2.52-14.882 5.135-22.122 8.21-1.647 0.675-3.245 1.445-4.845 2.2-8.487 3.77-16.827 7.71-24.92 12.16-0.397 0.195-0.698 0.37-1.098 0.57-27.367 15.21-52.385 34.205-74.357 56.405-0.348 0.355-0.7 0.75-1.048 1.15-6.842 6.915-13.332 14.18-19.525 21.725-1.298 1.62-2.547 3.34-3.845 4.985-44.697 56.61-71.662 128.245-71.662 206.162l75.805 0c1.95 0 3.845 1.047 4.848 2.895 0.997 1.827 0.85 3.997-0.253 5.62l-127.39 193.477c-0.997 1.5-2.688 2.5-4.61 2.5-1.895 0-3.592-1-4.59-2.5L0.936266 397.591c-1.075-1.647-1.25-3.795-0.25-5.645 0.997-1.845 2.897-2.895 4.845-2.895l75.807 0c0-91.605 28.212-176.525 76.117-246.734 0.6-0.97 0.997-2.02 1.648-2.995 4.992-7.195 10.485-13.805 15.83-20.6 1.947-2.57 3.845-5.21 5.892-7.74 7.84-9.635 16.18-18.675 24.72-27.54 0.847-0.87 1.597-1.745 2.395-2.52 28.767-29.16 61.277-53.73 96.682-73.35 0.9-0.585 1.797-1.13 2.795-1.655 10.188-5.545 20.675-10.56 31.312-15.3 2.645-1.15 5.192-2.425 7.887-3.57 9.09-3.8 18.427-7.145 27.817-10.335 4.443-1.53 8.84-3.08 13.335-4.475 8.237-2.475 16.63-4.515 25.065-6.57 5.645-1.325 11.19-2.745 16.932-3.845 2.342-0.495 4.59-1.22 6.937-1.595 7.992-1.43 15.982-2.225 23.972-3.22 2.895-0.325 5.742-0.82 8.587-1.15 14.385-1.42 28.665-2.375 42.947-2.375 87.447 0 172.737 27.075 245.902 78.98 23.32 16.58 29.01 49.105 12.675 72.755C754.419266 128.887 722.199266 134.607 698.879266 118.027M941.484266 389.049c-0.045 91.335-28.065 176.075-75.755 246.137-0.705 1.2-1.195 2.422-1.95 3.52-5.945 8.565-12.39 16.555-18.825 24.57-0.75 0.975-1.45 1.997-2.245 2.945-43.65 53.605-98.435 95.027-160.555 122.095-1.7 0.75-3.4 1.597-5.1 2.347-9.935 4.117-20.065 7.762-30.255 11.235-3.695 1.223-7.345 2.572-11.09 3.695-8.885 2.722-17.92 4.942-27.015 7.065-5.04 1.175-10.04 2.472-15.125 3.472-2.555 0.5-4.895 1.247-7.395 1.695-6.79 1.202-13.635 1.728-20.425 2.6-4.7 0.597-9.345 1.347-14.09 1.847-11.43 1.072-22.77 1.522-34.105 1.722-2.045 0-4.095 0.325-6.142 0.325-0.348 0-0.7-0.1-1.095-0.125-87.292-0.075-172.437-26.765-245.499-78.6-23.37-16.527-29.062-49.11-12.73-72.755 16.327-23.645 48.587-29.39 71.91-12.81 56.43 40.025 122.297 60.275 189.812 59.672 9.74-0.072 19.28-0.548 28.715-1.445 2.95-0.348 5.795-0.775 8.69-1.15 7.795-0.95 15.485-2.072 23.07-3.595 3.35-0.647 6.69-1.525 9.935-2.272 7.445-1.695 14.895-3.52 22.185-5.742 2.29-0.747 4.54-1.572 6.83-2.345 8.34-2.75 16.485-5.717 24.52-9.09 0.81-0.348 1.655-0.772 2.45-1.097 48.09-20.95 90.29-53.207 123.205-93.53 0.19-0.253 0.395-0.575 0.59-0.8 46.345-57.102 74.26-130.107 74.26-209.579l-75.81 0c-1.94 0-3.845-1.048-4.84-2.895-1-1.845-0.855-3.997 0.255-5.645l127.43-193.454c0.96-1.495 2.66-2.465 4.6-2.465 1.895 0 3.595 0.97 4.595 2.465l127.345 193.454c1.095 1.648 1.245 3.8 0.25 5.645-1.005 1.847-2.895 2.895-4.85 2.895l-75.75 0L941.485266 389.049z"  horiz-adv-x="1025" />

    
    <glyph glyph-name="ykt__jilv" unicode="&#59013;" d="M144.050432 584.879872C150.72016 597.85472 159.483744 614.3424319999999 165.972256 624.519264 245.506592 749.264288 385.091328 832 544 832 791.423552 832 992 631.423552 992 384 992 136.57644800000003 791.423552-64 544-64 383.12528-64 242.055648 20.795583999999963 163.047904 148.12998400000004 152.260384 165.515936 148.608608 174.122976 148.608608 174.122976 140.526912 189.92175999999995 121.00352 197.11276799999996 104.646144 190.394048 88.174688 183.628512 81.331744 165.50969599999996 89.107264 149.81993599999998 89.107264 149.81993599999998 94.27984 138.063936 105.745536 119.13318400000003 195.465184-29.000928000000044 358.17136-128 544-128 826.769792-128 1056 101.23020799999995 1056 384 1056 666.769792 826.769792 896 544 896 360.797344 896 200.068256 799.779104 109.592672 655.117184 105.015264 647.798368 99.386304 637.55312 94.010208 627.34224L76.719904 736.50896C73.980704 753.8035199999999 57.73136 765.601568 40.154144 762.817632 22.698592 760.0529280000001 10.815968 743.493056 13.539136 726.299552L38.593024 568.115552C44.117152 533.2376320000001 76.620576 509.402272 111.74736 514.965792L269.931392 540.01968C287.335072 542.77616 299.2216 559.03952 296.437632 576.616768 293.67296 594.0722880000001 277.178208 605.965248 260.117184 603.26304L144.050432 584.879872 144.050432 584.879872 144.050432 584.879872ZM544 672.147264C544 689.7390399999999 529.79632 704 512 704 494.32688 704 480 689.415648 480 671.9208639999999L480 384.27296C480 348.77599999999995 508.8624 320 544.27296 320L831.920864 320C849.637664 320 864 334.20367999999996 864 352 864 369.67312000000004 849.418752 384 832.147264 384L575.852736 384C558.26096 384 544 398.581248 544 415.852736L544 672.147264 544 672.147264 544 672.147264Z"  horiz-adv-x="1056" />

    
    <glyph glyph-name="dingwei" unicode="&#59061;" d="M492.3392-116.53120000000001L229.4784 448C208.1792 493.6704 197.5296 539.4431999999999 197.5296 585.1136c0 85.2992 30.5152 158.5152 91.4432 219.4432C349.9008 865.4848 423.0144 896 508.3136 896s158.5152-30.5152 219.4432-91.4432C788.6848 743.6288 819.2 670.5152 819.2 585.1136c0-45.6704-10.6496-91.4432-31.9488-137.1136L524.3904-116.53120000000001C521.3184-124.21119999999996 515.9936-128 508.3136-128S495.4112-124.21119999999996 492.3392-116.53120000000001zM234.0864 585.1136c0-42.7008 9.1136-83.0464 27.4432-121.1392l246.8864-530.3296 246.8864 530.3296c18.3296 38.0928 27.4432 78.4384 27.4432 121.1392 0 76.1856-26.624 140.9024-79.9744 194.2528C649.3184 832.7168 584.4992 859.4432 508.3136 859.4432c-76.1856 0-140.9024-26.624-194.2528-79.9744C260.7104 726.016 234.0864 661.2992 234.0864 585.1136zM597.504 493.6704C573.1328 469.2992 543.4368 457.1136 508.3136 457.1136S443.1872 469.7088 418.0992 494.8992 380.3136 550.0928 380.3136 585.1136c0 35.0208 12.5952 65.1264 37.6832 90.3168s55.1936 37.6832 90.3168 37.6832S573.44 700.6208 598.6304 675.4304C623.8208 650.24 636.3136 620.2368 636.3136 585.1136 636.3136 550.0928 623.4112 519.5776000000001 597.504 493.6704zM572.3136 649.1136C554.0864 667.4431999999999 532.6848 676.5568000000001 508.3136 676.5568000000001S462.6432 667.4431999999999 444.3136 649.1136C426.0864 630.8864 416.8704 609.4848 416.8704 585.1136c0-24.3712 9.1136-45.6704 27.4432-64 18.3296-18.3296 39.6288-27.4432 64-27.4432s45.6704 9.1136 64 27.4432c18.3296 18.3296 27.4432 39.6288 27.4432 64C599.7568 609.4848 590.6432 630.8864 572.3136 649.1136z"  horiz-adv-x="1024" />

    
    <glyph glyph-name="kjia" unicode="&#58961;" d="M213.383626 236.57378900000003L75.278528 374.67888800000003c-14.45382 14.45484-22.413318 33.670483-22.413318 54.110507L52.865209 688.245976c0 28.130158 22.885725 51.015884 51.015884 51.015884l259.456581 0c20.441044 0 39.657707-7.960518 54.110507-22.413318l138.105099-138.105099L519.478929 542.669091 381.37383 680.77419c-4.81794 4.81794-11.223494 7.470766-18.036156 7.470766l-259.456581 0 0-259.455561c0-6.813681 2.653846-13.219236 7.471786-18.037176l138.105099-138.105099L213.383626 236.57378900000003zM639.547872-4.808885000000032c-19.596221 0-39.192442 7.459543-54.110507 22.377607L391.939219 211.06584699999996l36.073331 36.073331L621.510696 53.64205400000003c9.946057-9.946057 26.127275-9.946057 36.073331 0l233.947619 233.947619c9.946057 9.945036 9.946057 26.128295 0 36.073331L698.034521 517.161149l36.073331 36.073331L927.605998 359.737356c29.836129-29.836129 29.836129-78.384885 0-108.221014L693.658379 17.567702000000054C678.740314 2.6496369999999843 659.144093-4.808885000000032 639.547872-4.808885000000032zM78.373151-51.48433699999998L27.357268-0.46845299999995405 947.826654 866.751574 947.826654 866.751574ZM231.420802 560.706267m-51.015884 0a50 50 0 1 1 102.031767 0 50 50 0 1 1-102.031767 0Z"  horiz-adv-x="1024" />

    
    <glyph glyph-name="dianhua" unicode="&#58989;" d="M776.343527-83.25696l-0.019443 0-4.822842 0.107447C659.314137-77.409788 507.803421 28.182109 366.17375 199.321884l-52.31039 63.189158C172.229596 433.662073 98.030687 600.821187 115.380844 709.664128 127.629819 786.453025 241.793952 851.25696 307.026652 851.25696c32.131815 0 43.773969-15.990183 47.841611-25.536606 36.929074-65.630766 82.624812-179.760107 82.833567-220.689285l0.01535-2.916423-1.044796-2.720971c-8.144494-21.516036-26.367531-31.821753-42.448788-40.914852-21.179368-11.968589-33.217543-19.827581-34.685987-42.453904-0.437975-6.871501 5.483898-38.105876 98.924034-153.291269l39.945781-48.234561C592.108502 203.924715 621.590977 192.017524 628.492154 191.033104c22.589484-3.139503 33.231869 6.764054 49.482995 24.578792 12.369725 13.563924 26.402323 28.957519 49.563836 32.351825l2.930749 0.418532 2.8847-0.617054c40.803311-8.603959 145.246035-75.911924 204.541513-125.889175 8.556886-5.677303 23.49818-22.549575 11.666714-59.813271C931.006026 3.541919 850.104461-83.25696 776.343527-83.25696L776.343527-83.25696 776.343527-83.25696zM776.343527-83.25696"  horiz-adv-x="1024" />

    
    <glyph glyph-name="fabu" unicode="&#58991;" d="M512 895.998713c-282.769282 0-511.998713-229.229431-511.998713-511.998713 0-282.769282 229.229431-511.998713 511.998713-511.998713 282.767995 0 511.998713 229.228144 511.998713 511.998713C1023.998713 666.769282 794.767995 895.998713 512 895.998713zM748.560448 351.507222 542.994656 351.507222l0-205.560645c0-17.279887-13.946437-31.226324-31.221176-31.226324-17.279887 0-31.226324 13.946437-31.226324 31.226324L480.547156 351.507222l-205.559357 0c-17.279887 0-31.226324 13.946437-31.226324 31.226324s13.946437 31.226324 31.226324 31.226324l205.666182 0 0 205.559357c0 17.279887 13.94515 31.226324 31.219889 31.226324 17.279887 0 31.226324-13.946437 31.226324-31.226324L543.100194 413.958583l205.560645 0c17.17435 0 31.120786-13.946437 31.120786-31.226324S765.835188 351.507222 748.560448 351.507222z"  horiz-adv-x="1024" />

    
    <glyph glyph-name="qiche" unicode="&#58940;" d="M931.635 463.5825l-84.1 217.4375c-15.825 41.4125-50.1125 76.805-114.8375 76.805l-118.7875 0c0 0-38.5875 91.025-58.3875 91.025l-85.675 0c-19.825 0-58.4-91.025-58.4-91.025l-120.1875 0c-64.625 0-98.925-35.3925-114.7175-76.805L92.4 463.5825C59.0375 459.3075 0 420.075 0 345.8025l0-276.65 94.63 0 0-68.85c0-108.8375 128.055-107.575 128.055 0l0 68.85 578.6225 0 0-68.85c0-107.575 128.075-108.8375 128.075 0l0 68.85 94.6125 0 0 276.65C1024.0225 420.075 964.96 459.3075 931.635 463.5825zM242.805 636.925c7.925 24.05 19.7925 41.425 47.5425 41.7175l443.3875 0c27.6125-0.295 39.5125-17.6675 47.4375-41.7175l63.35-168.225L179.4875 468.7 242.805 636.925zM205.9675 236.64c-40.075 0-72.5925 33.55-72.5925 74.925 0 41.4125 32.5175 74.9675 72.5925 74.9675 40.08 0 72.5675-33.555 72.5675-74.9675C278.5375 270.19 246.05 236.64 205.9675 236.64zM818.06 236.64c-40.0625 0-72.5625 33.55-72.5625 74.925 0 41.4125 32.5 74.9675 72.5625 74.9675 40.125 0 72.6125-33.555 72.6125-74.9675C890.6725 270.19 858.185 236.64 818.06 236.64z"  horiz-adv-x="1024" />

    
    <glyph glyph-name="tcdianzan__on" unicode="&#58938;" d="M281.504 528.246v0c0 0 31.971 1.032 31.971-31.971v-446.554c0 0 0-18.563-22.688-18.563h-109.317c0 0-26.814 0-26.814 26.814l-25.782 444.491c0 0 0 25.782 26.813 25.782h125.818zM841.501 528.246v0c0 0 53.628 5.156 53.628-50.533 0 0 0-102.099-78.379-368.174 0 0-24.751-78.379-54.659-78.379h-315.578c-22.688 0-78.379 15.47-78.379 56.722v440.365c0 0 155.726 92.817 155.726 240.293 5.156 7.219-7.219 53.627 51.565 53.627 0 0 137.163 8.249 55.69-293.921h210.385zM571.3 782.976c14.438-4.125 26.814-19.596 31.971-30.939 30.939-62.909 7.219-150.571-9.282-213.479l-6.188-21.657c-6.187-23.72 0-26.814 25.782-26.814h208.323c26.814 0 34.033-9.282 31.971-38.159-2.063-18.563-5.156-28.878-8.249-44.347-16.501-88.692-41.252-201.104-67.034-286.702-15.47-49.503-36.096-50.534-81.472-50.534h-242.356c-38.159 0-48.471 26.813-48.471 56.722v382.612c88.692 44.347 154.695 157.789 156.758 252.669 1.032 5.156 1.032 9.282 2.063 15.47 0 1.032 0 3.094 0 4.125 2.063 1.032 4.125 1.032 6.188 1.032zM169.093 489.056h105.193v-418.708h-81.472l-23.72 418.708z"  horiz-adv-x="1024" />

    
    <glyph glyph-name="toutiao_bofang" unicode="&#58908;" d="M512 896c-282.766222 0-512-229.233778-512-512 0-282.766222 229.233778-512 512-512 282.766222 0 512 229.233778 512 512C1024 666.766222 794.766222 896 512 896zM512-71.11111100000005c-250.936889 0-455.111111 204.174222-455.111111 455.111111s204.174222 455.111111 455.111111 455.111111 455.111111-204.174222 455.111111-455.111111S762.936889-71.11111100000005 512-71.11111100000005zM720.952889 417.649778l-3.128889 2.275556-135.708444 99.157333-111.786667 81.692444-10.382222 7.594667c-6.001778 3.214222-12.743111 5.233778-20.053333 5.233778-23.580444 0-42.666667-19.086222-42.666667-42.666667l0-186.936889 0-186.396444c0-23.552 19.086222-42.666667 42.666667-42.666667 8.476444 0 16.327111 2.56 22.983111 6.798222 0.938667 0.597333 1.792 1.28 2.673778 1.934222l116.593778 85.219556 135.68 99.100444 3.214222 2.360889c10.069333 7.793778 16.668444 19.882667 16.668444 33.621333C737.678222 397.738667 731.079111 409.856 720.952889 417.649778z"  horiz-adv-x="1024" />

    
    <glyph glyph-name="weixin" unicode="&#58959;" d="M499.057025 548.04468c27.691946 0 45.751911 18.661964 45.751911 45.751911 0 27.089947-18.661964 45.751911-45.751911 45.751911-26.487948 0-54.781893-17.457966-54.781893-45.751911C444.275132 566.104644 472.569077 548.04468 499.057025 548.04468zM299.795414 594.398589c0 27.089947-18.661964 45.751911-45.751911 45.751911-26.487948 0-54.781893-17.457966-54.781893-45.751911 0-28.293945 28.293945-45.751911 54.781893-45.751911C281.73545 548.04468 299.795414 566.706643 299.795414 594.398589zM1024 270.523222c0 67.423868-30.099941 132.439741-84.279835 183.007643-53.577895 49.965902-125.215755 80.667842-201.067607 87.28983 0 1.203998 0 2.407995 0 3.611993-31.905938 148.091711-190.833627 260.063492-370.229277 260.063492C164.947678 804.496179 0 663.026455 0 489.048795 0 396.340976 46.955908 312.061141 136.653733 246.443269l-30.70194-92.707819c-2.407995-7.223986 0-14.447972 5.417989-19.263962 5.417989-4.815991 13.845973-5.417989 19.865961-2.407995l116.787772 58.393886 13.845973-3.009994 0.601999 0c36.119929-7.223986 67.423868-13.845973 105.951793-13.845973 7.223986 0 34.915932 2.407995 43.945914 6.621987 44.547913-108.359788 163.74368-181.201646 297.387419-181.201646 33.711934 0 68.025867 7.825985 102.3398 16.253968l89.697825-48.761905c2.407995-1.203998 5.417989-2.407995 8.427984-2.407995 4.213992 0 8.427984 1.203998 11.437978 4.213992 6.019988 4.815991 7.825985 12.039976 6.019988 19.263962l-22.875955 75.249853C981.258083 123.635509 1024 197.681364 1024 270.523222zM864.470312 92.33157c-6.019988-4.213992-8.427984-12.039976-6.019988-18.661964l12.641975-42.741917-54.179894 29.497942c-2.407995 1.203998-5.417989 2.407995-8.427984 2.407995-1.203998 0-3.009994 0-4.213992-0.601999-31.303939-7.825985-63.811875-16.253968-95.717813-16.253968-146.285714 0-265.481481 100.533804-265.481481 223.943563 0 123.409759 119.195767 223.943563 265.481481 223.943563 143.877719 0 264.879483-102.3398 264.879483-223.943563C974.034098 208.517343 935.506173 145.307466 864.470312 92.33157zM181.803645 255.473251c2.407995 7.223986 0 15.049971-6.621987 19.865961C90.901822 334.335097 48.159906 405.972957 48.159906 488.446796 48.159906 637.140506 191.435626 758.142269 367.821282 758.142269c154.111699 0 291.96943-93.911817 322.069371-218.525573-164.345679-3.611993-297.387419-120.399765-297.387419-261.869489 0-18.661964 2.407995-37.925926 7.825985-57.189888-0.601999 0-1.805996 0-2.407995 0-9.631981-0.601999-19.865961-1.203998-30.099941-1.203998-34.313933 0-63.811875 6.019988-95.717813 12.641975l-19.263962 3.611993c-3.611993 0.601999-7.825985 0-11.437978-1.203998l-80.065844-40.333921L181.803645 255.473251zM612.834803 386.106996c-18.661964 0-37.323927-18.661964-37.323927-37.323927 0-18.661964 18.661964-37.323927 37.323927-37.323927 28.293945 0 45.751911 19.263962 45.751911 37.323927C658.586714 366.843034 641.128748 386.106996 612.834803 386.106996zM804.872428 386.106996c-18.661964 0-36.721928-18.661964-36.721928-37.323927 0-18.661964 18.059965-37.323927 36.721928-37.323927 28.293945 0 45.751911 19.263962 45.751911 37.323927C850.624339 366.843034 833.166373 386.106996 804.872428 386.106996z"  horiz-adv-x="1024" />

    
    <glyph glyph-name="tupian" unicode="&#58954;" d="M432.888596 240.596222L359.342127 342.35366999999997C349.598306 355.83502899999996 333.800712 355.83489 324.05699 342.35366999999997L188.471613 154.76040999999998C178.727792 141.27904999999998 184.541661 130.350499 201.457031 130.350499L447.704979 130.350499 822.658642 130.350499C839.583509 130.350499 845.267916 141.25514999999996 835.42945 154.70671800000002L620.563382 448.480695C610.659782 462.021318 594.773609 461.932263 584.935143 448.480695L432.888596 240.596222 432.888596 240.596222ZM273.271058 548.1261480000001a58.4 58.4 0 1 1 119.364471 0 58.4 58.4 0 1 1-119.364471 0ZM109.081528 697.331737L914.918473 697.331737C906.5326 697.331737 899.934531 704.008842 899.934531 712.19925L899.934531 55.800749999999994C899.934531 64.00834899999995 906.565377 70.66826300000002 914.918473 70.66826300000002L109.081528 70.66826300000002C117.4674 70.66826300000002 124.065469 63.99115800000004 124.065469 55.800749999999994L124.065469 712.19925C124.065469 703.991651 117.434624 697.331737 109.081528 697.331737ZM64.383234 55.800749999999994C64.383234 31.18760199999997 84.345684 10.986028000000033 109.081528 10.986028000000033L914.918473 10.986028000000033C939.585548 10.986028000000033 959.616766 31.105060999999978 959.616766 55.800749999999994L959.616766 712.19925C959.616766 736.812398 939.654316 757.013972 914.918473 757.013972L109.081528 757.013972C84.414452 757.013972 64.383234 736.894939 64.383234 712.19925L64.383234 55.800749999999994Z"  horiz-adv-x="1024" />

    
    <glyph glyph-name="yikatong" unicode="&#58881;" d="M1003.23456 571.9680000000001c-22.72 26.048-164.032 192.768-217.92 250.944-16.64 17.984-28.928 30.4-54.464 31.36-25.408 1.024-435.776 0-435.776 0-14.08 0-32.064-3.2-55.296-30.4-54.08-63.36-176-203.008-217.152-251.968-27.904-32.256-31.36-78.144 0-125.44 66.88-77.824 250.944-289.024 435.904-501.824 26.176-30.336 42.752-31.424 54.464-31.424 11.456 0 27.712 0.576 54.528 31.424 183.104 210.816 358.848 412.288 435.712 501.824 25.92 31.424 30.784 88.32 0 125.504z m-54.528-94.08c-61.376-71.552-245.888-276.608-392-445.504-21.376-24.704-34.304-25.024-43.456-25.024-9.28 0-22.464 0.896-43.456 25.024-147.584 170.432-339.328 383.168-392.64 445.504-14.848 15.232-14.528 40.832 0 62.72 32.768 39.168 147.328 169.088 190.592 219.52 32.128 37.504 60.288 31.424 71.552 31.424h347.776c41.728 0 51.648-9.216 70.912-31.424 41.728-47.936 172.608-198.656 190.656-219.52 16.192-22.912 11.328-44.608 0.064-62.72z m-435.648-346.368c-47.68 64-216.704 269.312-259.84 328l-3.328 4.16c-7.424 9.92-14.08 14.592-32.192 14.592h-2.304v44.224h95.744c2.816 0 3.456 0 5.376-3.136l196.032-252.096 196.352 251.456c2.496 3.84 3.392 3.84 6.016 3.84h95.296v-44.288h-2.176c-17.92 0-24.704-4.672-32.128-14.656-0.768-0.96-1.536-2.112-2.688-3.392-43.584-59.2-212.544-264.704-260.16-328.704z m0 0"  horiz-adv-x="1024" />

    
    <glyph glyph-name="xinxi" unicode="&#58906;" d="M870.652165 823.09561L149.713019 823.09561c-42.361768 0-76.70412-34.341393-76.70412-76.70412l0-575.246382c0-42.361768 34.341393-76.70412 76.70412-76.70412l157.742981 0L307.456-34.277153999999996c0-10.590921 8.585109-19.17603 19.17603-19.17603 4.652105 0 8.914936 1.657768 12.236225 4.413363l0.086292-0.04027 184.871311 143.521079 346.826307 0c42.361768 0 76.70412 34.342352 76.70412 76.70412L947.356285 746.391491C947.356285 788.754217 913.012974 823.09561 870.652165 823.09561zM874.426966 711.910112l0-506.16761c0-21.181843-17.170217-38.35206-38.35206-38.35206L503.370787 167.390442l-88.064-72.949453L380.004674 65.19850199999996l0 29.242487 0 72.949453L184.089888 167.390442c-21.180884 0-38.35206 17.170217-38.35206 38.35206L145.737828 711.910112c0 21.180884 17.171176 38.35206 38.35206 38.35206l651.985019 0C857.256749 750.262172 874.426966 733.090996 874.426966 711.910112L874.426966 711.910112zM342.690996 510.115955c-9.370367 8.330067-21.71206 13.389663-35.235955 13.389663-17.194187 0-32.478442-8.179536-42.172884-20.859685-6.825708-8.92836-10.880479-20.08785-10.880479-32.193678 0-15.594906 6.728869-29.618337 17.440599-39.325243 9.414472-8.531416 21.906697-13.729079 35.613723-13.729079 16.236345 0 30.768899 7.293603 40.500734 18.782921 7.830532 9.244764 12.552629 21.206772 12.552629 34.271401C360.508404 486.230292 353.621333 500.398502 342.690996 510.115955zM545.450667 510.499476c-9.315715 8.101873-21.484824 13.007101-34.800659 13.007101-14.088629 0-26.894382-5.491056-36.394187-14.450097-10.258217-9.673348-16.660135-23.390921-16.660135-38.603266 0-13.939056 5.375041-26.622082 14.166292-36.090247 9.688689-10.434637 23.526112-16.964075 38.88803-16.964075 16.071431 0 30.472629 7.145948 40.202547 18.433918 8.008869 9.291745 12.850816 21.390861 12.850816 34.620404C563.703371 486.438352 556.633169 500.772434 545.450667 510.499476zM745.426936 513.0853629999999c-8.82385 6.547655-19.751311 10.421213-31.581963 10.421213-15.313019 0-29.109213-6.487251-38.793109-16.862442-8.84782-9.478712-14.261213-22.202007-14.261213-36.190921 0-14.088629 5.492015-26.895341 14.451056-36.394187 9.674307-10.257258 23.390921-16.659176 38.603266-16.659176 15.099206 0 28.724734 6.307955 38.385618 16.43194 9.087521 9.521858 14.667745 22.420614 14.667745 36.622382C766.898337 487.921618 758.455131 503.417768 745.426936 513.0853629999999z"  horiz-adv-x="1024" />

    
    <glyph glyph-name="ptuan" unicode="&#59002;" d="M512.00921 855.513914c-259.993452 0-471.523123-211.520461-471.523123-471.513914s211.530694-471.513914 471.523123-471.513914c81.19116 0 161.399947 21.221324 231.942583 61.369719 14.048971 7.990998 18.945491 25.859971 10.963703 39.909965-8.001231 14.039761-25.859971 18.96391-39.909965 10.95347-61.741179-35.137265-131.929752-53.711296-202.99632-53.711296-227.722468 0-413.002288 185.269587-413.002288 412.993079S284.286742 796.993079 512.00921 796.993079s412.982846-185.269587 412.982846-412.993079c0-41.48074-6.210445-82.467223-18.459421-121.833813-4.800329-15.430434 3.829212-31.831986 19.259646-36.633339 15.410991-4.839215 31.831986 3.818979 36.633339 19.240203 13.991666 45.005007 21.088294 91.848894 21.088294 139.225925C983.513914 643.9934519999999 772.002662 855.513914 512.00921 855.513914zM416.140769 502.871341c0 15.708773-12.401448 28.418236-27.936259 29.127388l0 42.196031c0 16.164145-13.097296 29.260417-29.260417 29.260417-16.153912 0-29.260417-13.097296-29.260417-29.260417l0-42.061978-38.595017 0c-16.164145 0-29.260417-13.097296-29.260417-29.260417s13.097296-29.260417 29.260417-29.260417l38.595017 0 0-89.191368-52.17736-52.17736c-11.43033-11.420097-11.43033-29.956266 0-41.376363 5.715165-5.715165 13.201673-8.572236 20.688181-8.572236s14.983249 2.857071 20.688181 8.572236l10.800997 10.800997 0-72.199369c0-8.514931-3.809769-16.440437-10.458189-21.745257-6.64842-5.29561-15.240099-7.267521-23.517623-5.372358l-3.723811 0.847298c-15.697517 3.571339-31.442106-6.296403-35.023678-22.050202-3.581572-15.753799 6.28617-31.431873 22.050202-35.023678l3.714602-0.838088c6.420223-1.466398 12.896728-2.181689 19.316951-2.181689 19.335371 0 38.194904 6.515391 53.682643 18.877953 20.650319 16.4783 32.479739 41.071418 32.479739 67.483974L388.204509 360.18766500000004l10.95347 10.95347c11.43033 11.420097 11.43033 29.956266 0 41.376363-3.181459 3.188622-6.962575 5.26798-10.95347 6.678096l0 54.54836C403.739321 474.454128 416.140769 487.162568 416.140769 502.871341zM739.808426 456.913637c16.164145 0 29.260417 13.097296 29.260417 29.260417s-13.097296 29.260417-29.260417 29.260417l-58.149375 0 21.526269 47.815005c6.628978 14.735609 0.066515 32.061207-14.678304 38.690184-14.744819 6.64842-32.050973 0.066515-38.690184-14.668071l-21.793352-48.405453c-3.486404-7.750521-3.238764-16.180518-0.152473-23.431665l-70.446445 0c4.724605 8.541537 5.143137 19.212574 0.048095 28.375258l-24.888853 44.748157c-7.848759 14.115486-25.660426 19.211551-39.795355 11.353582-14.115486-7.857968-19.202341-25.669636-11.344373-39.795355l24.850991-44.681642-54.578036 0c-16.153912 0-29.260417-13.097296-29.260417-29.260417s13.106506-29.260417 29.260417-29.260417l44.414559 0c0.228197-30.482245-0.87595-65.00041-3.857864-99.392708l-47.348378 0c-16.164145 0-29.260417-13.097296-29.260417-29.260417s13.097296-29.260417 29.260417-29.260417l40.195467 0c-8.715499-54.061266-23.107277-100.333126-45.424562-118.185726-12.611226-10.096962-14.658861-28.517497-4.562922-41.128723 5.78168-7.229658 14.278191-10.982122 22.86987-10.982122 6.40078 0 12.858866 2.095731 18.258852 6.40999 37.985126 30.396287 57.806567 96.712669 68.007907 163.886581l97.393167 0 0-141.036153c0-16.164145 13.097296-29.260417 29.260417-29.260417 16.153912 0 29.260417 13.097296 29.260417 29.260417L700.183963 298.99907099999996l32.841989 0c16.153912 0 29.260417 13.097296 29.260417 29.260417s-13.106506 29.260417-29.260417 29.260417l-32.841989 0 0 99.392708L739.808426 456.912613zM641.663128 357.520929l-90.687442 0c3.200902 39.241746 3.800559 74.953086 3.657296 99.392708l87.029122 0L641.662105 357.520929z"  horiz-adv-x="1024" />

    
    <glyph glyph-name="sousuo" unicode="&#58905;" d="M974.00547-71.39343L694.834457 252.084027c130.349584 141.025575 136.925532 361.142986 8.539348 509.913886A382.790921 382.790921 0 0 1 413.339123 894.729564a382.863104 382.863104 0 0 1-250.052051-93.044974C85.848245 734.856788 39.073114 641.869562 31.573213 539.859354s25.170506-200.844325 92.005527-278.268715a382.805357 382.805357 0 0 1 290.056337-132.753306 382.776484 382.776484 0 0 1 215.605921 66.676216l279.192669-323.499112 65.571803 56.592133zM189.150543 318.175553c-51.712505 59.919808-76.998506 136.391372-71.194925 215.331623s41.99656 150.885887 101.923587 202.605611a296.242493 296.242493 0 0 0 193.459918 72.003384 296.242493 296.242493 0 0 0 224.462879-102.710391c106.752686-123.708671 92.987227-311.198985-30.699789-417.944452a296.293021 296.293021 0 0 0-417.95167 30.714225z"  horiz-adv-x="1024" />

    
    <glyph glyph-name="fabu__info" unicode="&#58918;" d="M987.993 866.659c-3.266 1.74-6.827 2.57-10.709 2.57-14.001 0-26.744-11.673-26.557-11.673-8.513-4.765-853.547-477.84-883.45-495.321-16.84-9.825-26.504-26.637-25.112-43.878 1.044-14.162 9.477-25.352 22.38-29.93 25.353-8.942 281.313-98.733 281.313-98.733l4.711-1.606 16.17 53.97-246.51 85.75L876.973 765.81c-80.287-101.222-407.619-513.499-422.718-532.48-19.489-24.228-28.564-48.616-28.484-76.512l0.268-165.232h-0.054l0.054-57.853v-2.114c1.177-14.564 12.341-26.156 25.727-26.156 13.385 0 24.736 11.592 25.941 26.156 0 0 0.535 205.95 0 221.103-0.482 13.466 4.926 28.592 10.36 35.633 5.462 6.853 378.653 477.144 451.417 568.969-20.694-114.714-122.774-678.891-124.3-687.163-0.776-4.364-2.516-4.364-3.266-4.364-0.562 0-1.258 0.134-1.98 0.402-7.23 2.57-260.539 87.916-271.327 91.53l-4.551 1.553-16.652-54.426 4.952-1.713c2.49-0.83 250.954-85.267 275.637-93.218 4.926-1.58 9.932-2.409 14.992-2.409 26.182 0 48.028 20.882 53.195 50.651 2.007 11.78 26.209 145.18 54.158 299.677 38.55 212.537 82.187 453.452 83.285 461.001l0.59 3.588c2.087 12.341 5.54 32.848-16.224 44.226z m0 0"  horiz-adv-x="1065" />

    
    <glyph glyph-name="tongzhi" unicode="&#58951;" d="M588.729556 670.86161a43.378932 43.378932 0 0 1-41.262005 3.200677L269.073647 549.705496h-169.137374a43.350032 43.350032 0 0 1-43.350032-43.350031v-259.095915a43.350032 43.350032 0 0 1 43.350032-43.350032h169.137374l278.401129-124.378466a43.277782 43.277782 0 0 1 41.262005 3.222352 43.299457 43.299457 0 0 1 19.767615 36.363452V634.483708a43.357257 43.357257 0 0 1-19.77484 36.377902zM932.155733 419.373626h-179.295732a43.350032 43.350032 0 0 1 0-86.700064h179.295732a43.350032 43.350032 0 1 1 0 86.700064zM727.334058 483.134298a43.118832 43.118832 0 0 1 23.705242 7.08773l148.025908 96.988471a43.350032 43.350032 0 1 1-47.518859 72.517378L703.527665 562.746631a43.350032 43.350032 0 0 1 23.806393-79.612333zM899.065208 164.836689L751.0393 261.817936a43.350032 43.350032 0 0 1-47.51886-72.524604l148.025909-96.981246a43.299457 43.299457 0 0 1 60.010894 12.49926 43.350032 43.350032 0 0 1-12.492035 60.025343z"  horiz-adv-x="1024" />

    
    <glyph glyph-name="yanjing" unicode="&#58893;" d="M515.2 672C208 672 22.4 358.4 22.4 358.4s214.4-304 492.8-304 492.8 304 492.8 304S822.4 672 515.2 672zM832 243.2c-102.4-86.4-211.2-140.8-320-140.8s-217.6 51.2-320 140.8c-35.2 32-70.4 64-99.2 99.2-6.4 6.4-9.6 12.8-16 19.2 3.2 6.4 9.6 12.8 12.8 19.2 25.6 35.2 57.6 70.4 92.8 102.4 99.2 89.6 208 144 329.6 144s230.4-54.4 329.6-144c35.2-32 64-67.2 92.8-102.4 3.2-6.4 9.6-12.8 12.8-19.2-3.2-6.4-9.6-12.8-16-19.2-28.8-32-60.8-67.2-99.2-99.2zM512 550.4c-96 0-169.6-76.8-169.6-169.6 0-96 76.8-169.6 169.6-169.6 96 0 169.6 76.8 169.6 169.6S604.8 550.4 512 550.4z m0-294.4c-67.2 0-121.6 54.4-121.6 121.6 0 67.2 54.4 121.6 121.6 121.6 67.2 0 121.6-54.4 121.6-121.6 0-64-54.4-121.6-121.6-121.6z"  horiz-adv-x="1024" />

    
    <glyph glyph-name="choujiang_order" unicode="&#59240;" d="M945.689625 453.962846a36.372678 36.372678 0 0 0-36.372678-36.372678H290.981423a36.372678 36.372678 0 1 1 0-72.745356h581.962846v-363.726778a36.372678 36.372678 0 0 0-36.372678-36.372678H181.863389a36.372678 36.372678 0 0 0-36.372678 36.372678v400.099456a36.372678 36.372678 0 0 1-36.372677 36.372678 36.372678 36.372678 0 0 0-36.372678 36.372678v72.745356a36.372678 36.372678 0 0 0 36.372678 36.372677h145.490711a36.372678 36.372678 0 1 1 0 72.745356H189.901751l50.994495 130.941641a34.044826 34.044826 0 0 0 20.659681 18.768301 30.734913 30.734913 0 0 0 26.297446-3.746386L509.21749 629.2427809999999l220.964018 152.292402a30.916776 30.916776 0 0 0 26.697546 4.000994 33.317373 33.317373 0 0 0 19.786737-16.695059l51.831065-133.014883H763.826235a36.372678 36.372678 0 1 1 0-72.745356h145.490712a36.372678 36.372678 0 0 0 36.372678-36.372677v-72.745356z m-36.372678 181.863389h-8.620325l-63.906795 163.677051c-12.548574 27.279508-35.063261 47.648208-61.760807 56.013924a92.895819 92.895819 0 0 1-79.765283-12.112102L509.21749 715.155046 322.807516 843.623344a92.750329 92.750329 0 0 1-79.401556 11.857493c-26.697546-8.329343-49.212233-28.734416-62.633751-58.050794L117.701986 635.826235H109.118034a109.118034 109.118034 0 0 1-109.118034-109.118033v-72.745356c0-47.357227 30.516677-87.294427 72.745356-102.389088v-370.455724c0-60.160409 48.957624-109.118034 109.118033-109.118034h654.708202c60.160409 0 109.118034 48.957624 109.118034 109.118034V351.537385a108.827052 108.827052 0 0 1 72.745355 102.425461v72.745356a109.118034 109.118034 0 0 1-109.118033 109.118033z"  horiz-adv-x="1024" />

    
    <glyph glyph-name="shop" unicode="&#58936;" d="M536.576 263.67999999999995c-65.536 0-118.784 28.672-144.896 77.824H368.64c-28.16-47.616-81.408-77.824-138.752-77.824-88.064 0-159.744 68.608-159.744 153.6 0 2.56 0 7.168 57.344 272.896 1.024 55.296 48.128 99.328 105.472 99.328h576.512c57.344 0 104.448-44.544 105.472-99.328 59.392-265.728 59.392-269.824 59.392-272.896 0-87.552-65.024-153.088-151.04-153.088-54.272 0-97.792 26.624-125.952 77.824h-22.016c-28.16-48.128-81.408-78.336-138.752-78.336z m-193.024 118.784h74.752l5.12-12.8c16.896-40.96 59.392-65.536 113.152-65.536 46.592 0 89.088 26.112 108.032 66.56l5.632 11.776h72.704l5.632-11.776c20.992-44.544 52.224-66.048 95.232-66.048 63.488 0 109.056 46.592 110.08 110.592-3.072 16.896-36.352 167.936-58.88 267.264l-0.512 2.048v2.048c0 33.792-29.184 60.928-64.512 60.928H232.96c-35.84 0-64.512-27.136-64.512-60.928v-2.048l-0.512-2.048c-21.504-99.84-53.76-250.88-56.832-267.776 1.024-61.44 53.76-111.104 118.784-111.104 46.592 0 89.088 26.112 108.032 66.56l5.632 12.288z m589.824 34.304z m-822.272 0zM831.488-34.303999999999974H212.992c-52.736 0-93.696 40.96-93.696 92.672v165.888c0 11.264 9.216 20.48 20.48 20.48s20.48-9.216 20.48-20.48v-165.888c0-29.696 22.528-51.712 52.736-51.712h618.496c29.184 0 52.736 20.992 52.736 46.592v168.448c0 11.264 9.216 20.48 20.48 20.48s20.48-9.216 20.48-20.48v-168.448c0-48.128-41.984-87.552-93.696-87.552zM779.776 504.32H288.768c-11.264 0-20.48 9.216-20.48 20.48s9.216 20.48 20.48 20.48h491.008c11.264 0 20.48-9.216 20.48-20.48s-9.216-20.48-20.48-20.48z"  horiz-adv-x="1024" />

    
    <glyph glyph-name="xinxi__hehuoren" unicode="&#58907;" d="M954.112 753.216l-313.984-794.24c-6.72-16.96-16.256-25.472-26.304-25.472-9.408 0-19.136 7.552-27.264 22.784L412.992 284.22400000000005 85.056 457.792c-31.296 16.64-29.696 40.768 2.688 53.568l794.24 313.984c15.424 6.144 28.992 9.024 40.448 9.024 37.376 0 51.584-30.912 31.68-81.152zM608.192 52.351999999999975l249.6 631.36-381.76-381.824 132.16-249.536zM430.848 347.20000000000005L812.8 729.216 181.056 479.424l249.792-132.224z"  horiz-adv-x="1024" />

    
    <glyph glyph-name="tcdianzan" unicode="&#58978;" d="M848.03584 457.12896a95.52896 95.52896 0 0 1-75.24352 36.352H604.8768c9.16992 25.56928 15.23712 53.35552 17.39264 80.24064 3.35872 41.80992-3.072 78.94528-18.5856 107.392-19.09248 34.9952-51.59424 56.82176-94.0032 63.12448-19.21024 2.85696-35.73248-0.83968-49.11104-10.97216-27.04384-20.48512-32.00512-59.47904-37.76-104.62208-4.59264-36.09088-9.8048-76.99456-27.30496-106.3168-11.68384-19.56864-34.41664-45.58336-96.74752-45.58336H233.71264c-43.3152 0-78.55616-35.2256-78.55616-78.52544v-296.87808c0-43.29472 35.24096-78.52544 78.55616-78.52544h473.87648c21.5808 0 42.76736 7.37792 59.66336 20.78208s28.91264 32.34304 33.82784 53.34528l65.19808 278.71232a95.4112 95.4112 0 0 1-18.24256 81.47456zM207.5136 101.34528V398.22336a26.2144 26.2144 0 0 0 26.19392 26.16832h55.1936v-349.2096h-55.1936a26.2144 26.2144 0 0 0-26.19392 26.1632z m607.78496 286.2336l-65.2032-278.71744a43.45856 43.45856 0 0 0-42.50624-33.68448H341.26336V428.1856c44.2368 8.44288 77.51168 30.96576 99.2 67.30752 23.10656 38.70208 29.04576 85.36576 34.28864 126.53568 2.36544 18.60608 4.60288 36.1728 8.15616 49.65376 3.8144 14.45888 7.7568 18.69312 9.27744 19.84512 1.73568 1.31584 5.02784 1.62816 9.79968 0.91648 26.26048-3.90144 44.4928-15.81056 55.72608-36.40832 23.05024-42.25024 12.86656-113.56672-9.09824-162.17088a37.23264 37.23264 0 0 1 2.62656-35.68128 37.1968 37.1968 0 0 1 31.39072-17.07008h190.16192a43.43296 43.43296 0 0 0 34.21696-16.53248 43.32032 43.32032 0 0 0 8.28928-37.00224z"  horiz-adv-x="1024" />

    
    <glyph glyph-name="shangshen" unicode="&#58963;" d="M345.6-4.607999999999947h113.152c14.848 0 27.648 12.288 27.648 27.648v244.736l-76.8 41.984-91.648-54.272v-232.448c0-15.36 12.288-27.648 27.648-27.648zM15.36 263.67999999999995l370.688 219.136 21.504 12.8 22.016-12.288 111.104-60.928 297.472 254.464-41.984 48.128 103.936 20.48 103.936 20.48-34.304-100.352-34.304-100.352-39.424 45.056-321.024-274.944-23.04-19.968-26.624 14.848L409.088 394.24l-349.184-206.336L15.36 263.67999999999995z m93.696-268.288h113.152c14.848 0 27.648 12.288 27.648 27.648V215.03999999999996l-168.448-99.328v-92.672c0-15.36 12.288-27.648 27.648-27.648z m473.088 0h113.152c14.848 0 27.648 12.288 27.648 27.648v343.552c0 1.536 0 3.072-0.512 4.096l-165.888-141.824-2.048 1.024v-207.36c0-14.848 12.288-27.136 27.648-27.136z m236.544 0H931.84c14.848 0 27.648 12.288 27.648 27.648v414.72l-68.096 77.824-100.352-86.016v-406.528c0-15.36 12.288-27.648 27.648-27.648z"  horiz-adv-x="1024" />

    
    <glyph glyph-name="ykt__ruzhu" unicode="&#58898;" d="M960 471.3c0.1 3.4-0.2 7-1.2 10.4l-83.3 301c-13.8 42.9-51 43.1-79.1 43.1H227c-27.1 0-60.6-0.2-78.8-44.1L65.3 492.9c-1.5-5.3-1.7-10.6-0.7-15.7-0.4-2-0.6-4.1-0.6-6.2 0-75.7 61.6-137.3 137.4-137.3 41.3 0 78.3 18.3 103.5 47.1 25.2-28.9 62.3-47.1 103.5-47.1 41.3 0 78.3 18.3 103.5 47.1 25.2-28.9 62.3-47.1 103.5-47.1 41.3 0 78.3 18.3 103.5 47.2 25.2-28.9 62.3-47.2 103.6-47.2 75.7 0 137.3 61.7 137.3 137.3 0.2 0.1 0.2 0.2 0.2 0.3z m-147.5-93.2c-35.4 0-74.4 30.6-96 53-21.6-22.4-65.1-53-100.5-53-35.4 0-82.9 30.6-104.5 53-21.6-22.4-64.7-52-100.1-52-35.4 0-83.6 30.6-105.3 53-21.6-22.4-57.2-53.9-92.6-53.9-65 0-115.8 43.3-91 123.1 0.5 1.6 4.5 12.7 5.8 16.8L199.4 742c15.6 34 44.3 34.2 67.6 34.2h488.4c24.1 0 56-0.2 67.8-33.4l71.4-233.3c0.8-2.7 2.3-8.8 2.3-8.9 26.8-76-19.5-122.5-84.4-122.5zM417.5 9.899999999999977H251.6c-37.5 0-68.1 30.6-68.1 68.1V243.89999999999998c0 18.7-15.2 33.9-33.9 33.9s-33.9-15.2-33.9-33.9V78c0-74.9 61-135.8 135.8-135.8h165.9c18.7 0 33.8 15.2 33.8 33.9 0.2 18.7-15 33.8-33.7 33.8zM917 139.10000000000002H808.7V247.39999999999998c0 14.9-12.1 27.1-27.1 27.1-14.9 0-27.1-12.1-27.1-27.1v-108.3H646.3c-14.9 0-27.1-12.1-27.1-27.1 0-14.9 12.1-27.1 27.1-27.1h108.3v-108.3c0-14.9 12.1-27.1 27.1-27.1 14.9 0 27.1 12.1 27.1 27.1V85H917c14.9 0 27.1 12.1 27.1 27.1 0 14.9-12.1 27-27.1 27z"  horiz-adv-x="1024" />

    
    <glyph glyph-name="nav__index" unicode="&#58901;" d="M843.51176-128H707.69576c-41.736 0-75.68 33.144-75.68 73.856V186.34400000000005c0 15.6-12.616 28.312-28.168 28.312H422.35976c-15.544 0-28.192-12.712-28.192-28.312v-240.488c0-40.72-33.128-73.856-73.832-73.856H186.51976c-40.704 0-73.832 33.144-73.832 73.856l0.192 448.16H30.54376a30.56 30.56 0 0 0-28.008 18.352 30.504 30.504 0 0 0 5.64 32.976l484.88 441.344c11.576 12.408 33.176 12.408 44.744 0l481.648-437.832a30.424 30.424 0 0 0 12.048-24.296 30.52 30.52 0 0 0-31.136-30.544h-82.328v-448.16c-0.008-40.712-33.448-73.856-74.52-73.856zM422.35976 275.75199999999995h181.496c49.216 0 89.256-40.096 89.256-89.408v-240.488c0-6.68 6.944-12.768 14.584-12.768h135.816c7.4 0 13.424 5.728 13.424 12.768V424.56a30.52 30.52 0 0 0 30.544 30.528h42.752L515.42376 821.04 100.67176 455.096h42.776a30.56 30.56 0 0 0 30.552-30.56l-0.208-478.704c0-7.008 5.712-12.736 12.736-12.736h133.816c7.024 0 12.736 5.728 12.736 12.768v240.48c0 49.312 40.04 89.408 89.28 89.408z"  horiz-adv-x="1031" />

    
    <glyph glyph-name="renzheng_company" unicode="&#58935;" d="M781.06624 326.6304c-2.47296 1.65376-10.93632 2.36032-27.84256 2.47808-1.38752 0.03072-2.74432 0.10752-4.13696 0.10752-3.72224 0-7.40864-0.10752-11.06944-0.31744-104.09984-4.80768-190.58688-90.60352-186.62912-195.60448v-0.01536c0-5.6832 0.3072-11.29984 0.77824-16.86016 0.49152-8.20736 1.0496-12.89728 1.82784-14.81216 15.27808-93.12256 96.78848-164.23936 195.09248-164.23936 109.17888 0 197.69344 87.72096 197.69344 195.91168 0.02048 97.4592-71.7312 178.20672-165.71392 193.35168z m110.0544-178.92864l-144.53248-141.56288a26.74688 26.74688 0 0 0-37.30944 0l-83.91168 82.19136a25.46688 25.46688 0 0 0-0.50688 36.0192l0.50688 0.512a26.70592 26.70592 0 0 0 37.27872 0l65.28-63.8976 125.91104 123.27424a26.76736 26.76736 0 0 0 37.2736 0 25.4208 25.4208 0 0 0 0.55296-35.968 6.3744 6.3744 0 0 0-0.54272-0.56832zM497.36704 184.80128000000002H228.21888v81.72032h61.74208V413.60384h88.97536v-147.08736h32.68608V489.86624h88.97536v-83.52256h110.76608v-56.10496a255.744 255.744 0 0 0 137.71264 40.05376c22.27712 0 43.8784-2.8416 64.49152-8.1664 0.14848 3.0976 0.2304 6.15936 0.2304 9.15968V683.67872c-173.35296 0-274.3808 65.72544-368.25088 138.08128-93.96224-72.35072-195.0976-138.08128-368.34816-138.08128v-292.39808c0-151.66464 194.99008-419.36896 368.35328-419.36896 29.184 0 58.96704 7.6544 88.32 20.992a255.7696 255.7696 0 0 0-41.7792 140.40064c0 17.64352 1.87904 34.84672 5.2736 51.49696zM391.64928 622.4281599999999h94.42304l9.07776-9.07776c55.66464-48.43008 113.1776-85.96992 172.50816-112.57856l-34.50368-87.16288c-75.06944 35.09248-138.00448 78.08512-188.8512 128.92672C397.09184 486.84544 335.94368 439.6288 260.89984 400.896L219.136 486.2464c72.63744 36.31104 130.11968 81.70496 172.51328 136.18176zM500.60288 266.52160000000003h31.65184l26.63424 39.6032a257.6128 257.6128 0 0 0 14.7712 14.86336H500.60288v-54.46656z"  horiz-adv-x="1024" />

    
    <glyph glyph-name="jiantou__zuo" unicode="&#59631;" d="M319.64 383.98400000000004l336.016 336.008 45.248-45.248L364.896 338.72zM365.216 429.536l339.976-339.968-45.256-45.256-339.976 339.976z"  horiz-adv-x="1024" />

    
    <glyph glyph-name="personal__renzheng2" unicode="&#58896;" d="M803.719529 336.745412c-5.601882 0-11.203765-0.301176-16.805647-0.873412-0.451765-0.030118-0.873412-0.120471-1.295058-0.180706a528.263529 528.263529 0 0 1-127.277177 54.091294 272.414118 272.414118 0 0 1 48.519529 43.550118c0.873412 0.873412 1.776941 2.048 2.650353 2.951529l7.951059 9.728c4.126118 5.300706 7.951059 10.601412 11.474824 16.203294a211.425882 211.425882 0 0 1 17.679059 30.629647c2.349176 4.427294 4.427294 8.824471 6.174117 13.251765 0.301176 0.602353 0.301176 0.873412 0.301177 1.174588a262.535529 262.535529 0 0 1 20.329411 101.616942 265.667765 265.667765 0 0 1-142.275764 235.068235 268.649412 268.649412 0 0 1-66.56 24.455529A264.673882 264.673882 0 0 1 518.324706 874.014118c-3.252706 0.301176-6.776471 0.301176-10.300235 0.301176-17.980235 0-35.358118-1.776941-52.434824-4.999529-121.374118-24.455529-212.992-131.975529-212.992-260.427294a264.854588 264.854588 0 0 1 115.169882-218.864942v-0.210823c-75.926588-20.901647-144.233412-57.042824-199.951058-104.809412C67.584 208.02258800000004 10.179765 99.20752900000002 10.511059-21.534118000000035c0-4.638118 0-9.276235 0.331294-13.94447h66.349176c-0.662588 4.638118-0.662588 9.276235-0.662588 13.94447 0.331294 99.207529 46.772706 189.44 124.747294 256.451765 77.643294 66.680471 185.795765 108.483765 306.537412 108.483765h0.331294c67.041882 0 130.198588-13.372235 186.608941-36.442353a215.371294 215.371294 0 0 1-107.038117-186.127059 216.064 216.064 0 0 1 215.943529-215.943529c119.296 0 216.214588 96.617412 216.214588 215.943529s-96.858353 215.913412-216.154353 215.913412z m-494.832941 272.143059a197.872941 197.872941 0 0 0 58.337883 140.8 198.324706 198.324706 0 0 0 140.8 58.036705c7.077647 0 14.155294-0.301176 20.901647-0.873411a201.878588 201.878588 0 0 0 119.597176-57.133177 197.872941 197.872941 0 0 0 58.337882-140.8c0-29.756235-6.475294-58.036706-18.251294-83.06447a91.557647 91.557647 0 0 0-5.300706-10.601412c-1.776941-3.824941-4.126118-7.649882-6.475294-11.474824-1.174588-2.048-2.349176-4.126118-3.824941-6.174117v-0.301177a243.651765 243.651765 0 0 0-22.106353-26.804706l-2.349176-2.349176a184.229647 184.229647 0 0 0-34.755765-27.678118 194.710588 194.710588 0 0 0-105.472-30.629647H506.578824c-13.552941 0-27.105882 1.475765-39.755295 4.427294-0.602353 0-0.873412 0-1.174588 0.301177a196.065882 196.065882 0 0 0-98.394353 53.609412 197.391059 197.391059 0 0 0-58.368 140.709647z m456.824471-601.780706l-103.996235 103.996235 46.832941 47.134118 57.133176-57.163294 91.617883 91.316705 41.833411 41.833412 46.832941-46.832941-180.254117-180.284235z"  horiz-adv-x="1024" />

    
    <glyph glyph-name="renzheng_personal" unicode="&#58942;" d="M721.9 436c-112.1 0-202.1-90-202.1-202.1s90-202.1 202.1-202.1S924 121.70000000000005 924 233.79999999999995 834.5 436 721.9 436z m112.6-144.4L725.3 131.29999999999995c-6.3-6.3-13-13-19.3-13s-15.9 3.4-19.3 9.6l-64 64c-6.3 6.3-6.3 19.3 0 25.5l15.9 15.9c6.3 6.3 19.3 6.3 25.5 0l35.1-35.1 83.3 125.1c6.3 9.6 19.3 9.6 25.5 6.3l19.3-13c3.4-3.4 6.3-6.3 9.6-13 0.5-2.4 0.5-8.6-2.4-12zM600.6 449.9c-5.8 1.9-12 3.9-17.8 5.8 56.3 37.1 93.8 101.1 93.8 173.7 0 115-92.9 207.9-207.9 207.9s-207.9-92.9-207.9-207.9c0-72.7 37.1-136.7 93.8-173.7-165-49.1-285.3-201.6-285.3-382.6h451.9c-32.7 42.8-52.5 96.3-52.5 154.5 0 95.8 53.5 179.5 131.9 222.3z"  horiz-adv-x="1024" />

    
    <glyph glyph-name="qianggou" unicode="&#59536;" d="M917.333333 384c0 223.850667-181.482667 405.333333-405.333333 405.333333S106.666667 607.8506669999999 106.666667 384s181.482667-405.333333 405.333333-405.333333 405.333333 181.482667 405.333333 405.333333z m-425.984 5.333333a21.333333 21.333333 0 0 1 6.101334-20.928l124.8-116.394666a21.333333 21.333333 0 0 1 29.12 31.189333l-118.08 110.122667L533.333333 394.666667v170.666666a21.333333 21.333333 0 0 1-42.666666 0v-170.666666c0-1.834667 0.213333-3.626667 0.682666-5.333334zM149.333333 384c0 200.298667 162.368 362.666667 362.666667 362.666667s362.666667-162.368 362.666667-362.666667-162.368-362.666667-362.666667-362.666667S149.333333 183.70133299999998 149.333333 384z m612.501334-305.002667a21.333333 21.333333 0 1 1-30.336-29.994666l74.304-75.157334a21.333333 21.333333 0 1 1 30.336 29.994667l-74.304 75.157333z m-480.362667-29.994666a21.333333 21.333333 0 0 1-30.336 29.994666L176.832 3.840000000000032a21.333333 21.333333 0 1 1 30.336-29.994667l74.304 75.157334zM778.496 768A117.525333 117.525333 0 0 0 896 650.666667a21.333333 21.333333 0 0 1 42.666667 0C938.666667 738.922667 866.901333 810.666667 778.496 810.666667h-20.992a21.333333 21.333333 0 1 1 0-42.666667h20.992zM245.504 810.666667C157.098667 810.666667 85.333333 738.922667 85.333333 650.666667a21.333333 21.333333 0 0 1 42.666667 0C128 715.370667 180.672 768 245.504 768h20.992a21.333333 21.333333 0 1 1 0 42.666667h-20.992z"  horiz-adv-x="1024" />

    
    <glyph glyph-name="zhaopin" unicode="&#58895;" d="M511.151-123.38599999999997c-281.366 0-509.467 228.082-509.467 509.444 0 68.644 13.665 134.078 38.277 193.845l41.328-18.64c-22.057-54.071-34.318-113.199-34.318-175.204 0-256.348 207.821-464.16 464.18-464.16 256.359 0 464.179 207.81 464.179 464.16S767.51 850.219 511.151 850.219c-94.673 0-182.691-28.406-256.105-77.074l-25.705 37.302C310.063 864.149 406.925 895.504 511.15 895.504c281.366 0 509.467-228.083 509.467-509.445s-228.098-509.444-509.467-509.444z m5.662 860.396c196.965 0 356.626-159.66 356.626-356.611S713.777 23.787000000000035 516.813 23.787000000000035c-196.964 0-356.626 159.661-356.626 356.612 0 196.951 159.663 356.611 356.626 356.611z m17.822-481.367h110.007c-1.193-22.77-5.317-35.345-12.415-37.732-1.194-1.204-8.878-1.204-23.061 0h-24.854c8.271-10.781 13.002-26.336 14.195-46.717 40.202-1.178 66.823 2.416 79.849 10.781 11.807 9.601 20.101 47.899 24.844 114.997H598.509l7.099 19.762h120.655V358.05999999999995H483.196v-41.326h65.641c-3.55-20.383-8.292-40.736-14.197-61.089zM307.531 521.558h26.611v-240.766c-10.646-1.204-19.514-2.41-26.611-3.594 1.161-4.797 3.548-12.576 7.098-23.36 2.355-13.189 4.709-22.766 7.099-28.745h1.769c1.171 0 5.328 1.178 12.427 3.594 24.831 8.37 52.617 15.554 83.387 21.558v-79.052h49.684v88.043c3.538 1.179 9.441 2.387 17.734 3.594 7.099 2.388 12.428 3.595 15.964 3.595 0 11.959 0.598 25.742 1.779 41.325l-35.477-7.187V521.559h24.833v-149.13h212.918V555.7h-81.617v7.186c0 7.19 0.577 13.169 1.769 17.972 1.174 2.38 1.77 4.179 1.77 5.383 2.367 2.387-7.097 3.591-28.38 3.591h-26.611v-34.133h-72.75v12.577H307.531v-46.717z m74.52-170.694h37.259v-57.49c-11.83-1.21-24.257-3.006-37.259-5.395v62.885z m0 86.246h37.259v-44.921h-37.259V437.11z m0 84.448h37.259v-43.124h-37.259v43.124z m193.391-37.725h-31.929v28.743h31.929v-28.743z m-1.766-68.281h-30.161v28.752h30.161v-28.752z m79.834 68.281h-30.16v28.743h30.16v-28.743z m0-68.281h-30.16v28.752h30.16v-28.752zM131.884 612.481c-46.889 0-84.911 38.015-84.911 84.908s38.021 84.908 84.911 84.908c46.889 0 84.912-38.015 84.912-84.908s-38.022-84.908-84.912-84.908z"  horiz-adv-x="1024" />

    
    <glyph glyph-name="jinbao" unicode="&#58949;" d="M505.6 576c128 0 230.4-102.4 230.4-224v-275.2H275.2V352C281.6 473.6 384 576 505.6 576zM243.2 441.6c-6.4-19.2-25.6-32-44.8-25.6l-108.8 19.2c-12.8 0-25.6 12.8-32 32v12.8c6.4 19.2 25.6 32 44.8 25.6l108.8-19.2c25.6-6.4 38.4-25.6 32-44.8z m-25.6 243.2c-6.4 6.4-6.4 12.8-6.4 19.2 0 12.8 0 25.6 12.8 32 12.8 12.8 38.4 12.8 51.2-6.4l70.4-83.2c12.8-12.8 12.8-38.4-6.4-51.2-12.8-12.8-38.4-12.8-51.2 6.4L217.6 684.8z m294.4-32c-19.2 0-32 12.8-38.4 32V800c0 19.2 19.2 38.4 38.4 38.4s38.4-19.2 38.4-38.4v-108.8c0-25.6-12.8-38.4-38.4-38.4z m172.8-70.4c-6.4 6.4-12.8 12.8-12.8 19.2 0 12.8 0 19.2 6.4 32l70.4 83.2c12.8 12.8 38.4 19.2 51.2 6.4 12.8-12.8 19.2-38.4 6.4-51.2l-70.4-83.2c-12.8-12.8-32-19.2-51.2-6.4z m268.8-128c0-19.2-12.8-38.4-32-38.4l-108.8-19.2c-19.2 0-38.4 12.8-44.8 32 0 19.2 12.8 38.4 32 38.4l108.8 19.2c25.6 0 44.8-12.8 44.8-32z m-134.4-460.8c0-25.6-25.6-51.2-51.2-51.2H243.2c-32 0-51.2 25.6-51.2 51.2s25.6 51.2 51.2 51.2H768c25.6 0 51.2-25.6 51.2-51.2z"  horiz-adv-x="1024" />

    
    <glyph glyph-name="hongbao" unicode="&#58983;" d="M928.67 689.72v83.17A111.22 111.22 0 0 1 817.56 884H206.44A111.22 111.22 0 0 1 95.33 772.89v-777.78A111.22 111.22 0 0 1 206.44-116h611.12a111.22 111.22 0 0 1 111.11 111.11V689.69a0.23 0.23 0 0 0 0 0.03zM206.44 828.44h611.12a55.63 55.63 0 0 0 55.56-55.56v-65L588.61 585.9300000000001a195.6 195.6 0 0 0-153.21 0L150.89 707.86v65a55.63 55.63 0 0 0 55.55 55.58z m611.12-888.88H206.44a55.63 55.63 0 0 0-55.56 55.56V647.44l262.65-112.56a250.93 250.93 0 0 1 196.94 0l262.64 112.56v-652.33a55.63 55.63 0 0 0-55.55-55.55zM616.55 420.11L512 341.71000000000004l-104.55 78.4a27.77 27.77 0 0 1-33.31-44.43l110.08-82.56v-6.85H415a27.78 27.78 0 0 1 0-55.56h69.2v-41.4H415a27.78 27.78 0 1 1 0-55.56h69.2v-69.2a27.78 27.78 0 1 1 55.56 0v69.2H609a27.78 27.78 0 1 1 0 55.56h-69.2v41.4H609a27.78 27.78 0 0 1 0 55.56h-69.2v6.85l110.08 82.56a27.77 27.77 0 0 1-33.31 44.43z"  horiz-adv-x="1024" />

    
    <glyph glyph-name="pc" unicode="&#58995;" d="M988.304 805.875h-816.531c-45.077-0.05-81.605-36.581-81.65-81.654v-544.348c0.05-45.073 36.576-81.599 81.644-81.65h381.051v-81.659h-136.087c-15.031-0.003-27.216-12.188-27.216-27.219s12.185-27.218 27.215-27.219h326.617c15.031 0.003 27.216 12.188 27.216 27.219s-12.185 27.217-27.215 27.219h-136.087v81.65h381.045c45.077 0.05 81.605 36.581 81.65 81.654v544.348c-0.045 45.078-36.572 81.609-81.644 81.659zM171.775 751.435h816.531c15.028-0.011 27.207-12.191 27.219-27.218v-462.697h-870.96v462.695c0.011 15.025 12.186 27.203 27.207 27.219zM988.304 152.65200000000004h-816.531c-15.028 0.011-27.207 12.191-27.219 27.218v27.211h870.96v-27.219c-0.017-15.022-12.188-27.193-27.209-27.21z"  horiz-adv-x="1189" />

    
    <glyph glyph-name="end" unicode="&#58900;" d="M571.244 698.5550000000001l24.259-2.215 16.469-18.571 8.471 22.207 22.053 9.005-19.028 15.942-2.835 24.138-20.235-12.357-23.82 5.911 6.532-23.595-11.867-20.466zM836.289 477.202l0.25-24.793 20.984 11.246 22.579-7.601-3.895 24.491 13.702 20.096-23.397 3.869-14.099 20.027-10.574-22.087-22.423-7.721 16.874-17.528zM717.271 631.45l21.424-11.582 7.79-23.543 16.572 17.089 23.827-0.405-11.177 22.139 6.937 23.294-23.466-3.404-19.554 14.796-3.318-24.241-19.036-14.141zM435.137 707.466l0.181-23.656 22.036 10.35 23.639-7.661-4.007 23.414 14.434 18.933-24.508 4.12-14.719 19.355-11.16-20.863-23.526-6.963 17.632-17.028zM442.979 52.351l-24.129 2.137-16.33 18.416-8.489-22.122-21.967-9.023 18.881-15.814 2.758-23.992 20.157 12.349 23.664-5.808-6.428 23.44 11.884 20.416zM306.269 126.94500000000005l-21.269 11.461-7.678 23.397-16.529-17.046-23.707 0.319 11.048-21.992-6.954-23.19 23.362 3.456 19.39-14.668 3.387 24.138 18.95 14.124zM195.23 272.351l-0.173 24.612-20.949-11.211-22.475 7.497 3.818-24.311-13.719-19.976 23.31-3.8 13.995-19.856 10.582 21.958 22.354 7.722-16.744 17.365zM869.906 750.097c-202.411 196.776-527.651 192.648-725.004-9.221-197.362-201.861-193.242-526.178 9.178-722.962 202.411-196.776 527.642-192.639 725.004 9.221 197.354 201.869 193.234 526.186-9.178 722.962zM177.84 42.226c-188.976 183.72-192.812 486.501-8.574 674.962 184.254 188.46 487.907 192.32 676.874 8.609 188.968-183.711 192.812-486.501 8.557-674.962-184.237-188.46-487.89-192.32-676.857-8.609zM812.117 690.9970000000001c-169.733 165.011-442.457 161.539-607.951-7.73-165.485-169.276-162.038-441.233 7.695-606.244 169.733-165.011 442.457-161.539 607.951 7.73 165.493 169.268 162.038 441.233-7.695 606.244zM611.222 29.33299999999997l-1.775 23.458-21.174-11.884-23.965 5.886 5.55-22.958-13.038-19.829 24.595-2.292 15.753-17.959c-129.567-27.223-270.026 8.273-371.74 107.161-162.047 157.548-165.339 417.199-7.333 578.806 158.005 161.624 418.396 164.933 580.451 7.394 162.055-157.54 165.356-417.199 7.342-578.814-1.036-1.063-2.267-2.311-3.508-3.552-58.747-58.747-130.936-95.858-206.667-111.335l11.28 21.677 22.863 8.626-18.632 15.615zM776.957 413.612c-6.299 57.375-31.736 113.708-76.23 158.202-0.909 0.909-1.824 1.811-2.743 2.705-91.39 88.842-233.779 100.519-338.432 27.63l9.747-13.917c97.965 68.234 231.264 57.29 316.94-26.008 0.734-0.713 1.595-1.561 2.449-2.415 41.651-41.651 65.463-94.384 71.439-148.707l16.83 2.511zM337.74 205.77999999999997c-0.734 0.713-1.595 1.561-2.451 2.417-41.651 41.651-65.461 94.389-71.428 148.714l-16.839-2.502c6.293-57.37 31.726-113.699 76.215-158.188 0.918-0.918 1.84-1.827 2.768-2.729 91.388-88.841 233.778-100.518 338.431-27.629l-9.747 13.917c-97.975-68.244-231.264-57.307-316.949 26zM372.771 396.273c-6.817 5.282-10.944 11.927-12.392 20.406-20.648-24.87-22.725-25.344-52.146-13.417-76.755 30.234-154.878 76.152-225.66 135.342 155.754-103.646 155.332-102.999 161.657-88.453l21.596 49.603 88.796-38.814-5.059-11.625 19.441-8.497c10.036 33.013 27.06 66.206 50.475 96.015l-26.664-37.01c5.817 13.366 10.875 23.388 14.366 29.24-12.186 3.706-35.505 12.978-69.096 27.663-30.644 13.392-55.756 25.526-66.451 31.584l-8.687-19.958c13.469-4.507 38.564-14.555 65.865-26.482l51.275-22.405-19.054-43.787-88.796 38.814 2.698 6.196c1.689 3.878 2.869 4.972 5.817 5.3 3.223 0.431 3.731 3.214 0.112 4.559-16.097 6.411-32.368 16.237-46.97 28.993 25.305-23.443 21.979-33.749 15.904-47.702l-24.207-55.61c-11.729-26.93-11.109-29.274 27.318-47.914 14.279-6.937 33.032-14.9 47.759-21.338 42.235-18.468 47.069-17.58 72.104 9.298zM528.182 280.60799999999995l17.485-7.644c11.621 38.044 31.265 76.317 58.236 110.715l-37.571-58.406c3.284 7.558 7.842 16.408 10.738 20.906-9.652 3.067-16.899 5.765-41.649 16.589-26.913 11.763-33.618 15.158-42.433 20.165-1.491-5.576-4.783-14.745-7.989-22.104l-10.876-24.991c-3.369-7.748-9.298-19.226-14.977-28.507l17.881-7.816 7.256 16.667 49.905-21.811-6.007-13.762zM490.083 329.54600000000005l13.581 31.195 49.905-21.811-13.581-31.195-49.905 21.811zM417.505 403.469c-0.06-5.506-1.577-12.229-4.162-18.709 8.084-0.758 14.486-2.18 23.854-5.36l36.625-12.547c1.267 4.524 5.395 10.79 8.936 14.09-15.995 5.153-27.62 9.075-41.287 13.659 54.024 34.962 64.305 40.847 66.132 40.744 3.456-0.129 4.042 1.232 1.517 3.481-2.327 2.172-6.704 8.239-10.04 14.538-4.998-4.499-11.85-10.04-21.285-17.218l-24.052 8.661c42.183 29.756 48.647 33.858 51.387 34.272 2.947 0.328 3.516 2.155-0.104 5.119-3.93 3.326-8.497 9.479-13.048 16.77-25.345-31.359-47.466-48.897-57.721-47.191-0.138-5.704-0.707-10.755-2.869-17.881 5.559-0.129 12.746-1.887 18.7-3.792l15.719-5.257c-30.335-22.923-39.995-24.707-48.302-23.38zM460.809 332.658c1.146 4.801 3.49 10.694 6.911 14.271-41.658 10.135-57.73 15.09-69.544 20.717-0.319-9.316-1.414-15.063-3.861-22.302 11.737 0.637 26.439-2.103 66.493-12.685zM509.611 440.473c10.246-3.318 24.25-8.756 41.227-15.942l-10.79-24.802c-14.848 6.713-24.81 11.763-33.342 16.882l-7.506-17.244c10.918-3.386 23.552-8.212 42.606-16.546s33.144-15.184 42.459-20.639l7.506 17.244c-8.954 2.525-20.803 7.014-35.815 13.34l10.79 24.802c18.967-8.523 35.022-16.236 45.019-21.751l7.756 17.821c-10.918 3.386-27.482 9.936-46.613 18.072l8.85 20.346c1.094 2.525 2.189 3.429 3.231 3.663 4.266 0.664 4.912 2.689 0.62 4.119-2.439 0.837-12.289 5.601-17.287 9.169-1.491-5.576-4.757-15.219-11.333-30.326-16.813 7.575-30.11 14.081-39.624 19.631l-7.756-17.839zM719.167 274.60900000000004c86.377-38.175 174.998-93.771 255.736-163.334-211.752 151.028-207.848 161.085-203.539 170.961 4.05 9.307 8.488 18.433 12.59 25.172-15.633 5.446-31.61 11.737-57.928 23.25l8.178 18.795c33.79-14.762 56.127-25.224 74.371-34.35l7.851 18.019c-19.002 7.386-41.847 16.684-75.715 31.248l4.223 9.686c0.494 1.356 1.324 2.691 2.466 3.833 1.199 1.199 2.611 2.055 4.113 2.569 5.554 2.129 5.296 3.164-0.091 5.292-9.804 3.976-19.663 10.095-28.441 18.064 9.499-14.858 8.508-17.659 2.019-32.576-33.316 14.788-54.274 24.646-73.414 34.393l-8.014-18.407c18.89-7.101 41.537-16.304 74.931-30.912l-8.178-18.795c-27.499 12.022-41.787 18.95-56.601 26.818-2.138-7.601-5.8-17.071-9.841-26.37-4.137-9.496-8.712-19.484-13.004-26.137 77.583-27.988 156.295-71.845 227.535-129.516-208.49 96.975-242.823 90.08-273.087 92.012 4.653-7.567 7.29-13.34 9.445-20.734 42.786 4.818 65.89 13.857 92.795 34.85l1.18-0.508-13.4-30.808c-17.437-41.102-43.329-82.996-76.213-120.927l77.444 77.02c16.196 48.612 42.52 97.683 77.901 141.894l-50.005-74.064 2.551-1.12c-1.085-36.883 14.53-64.925 38.858-86.392 4.499 6.566 9.298 11.16 19.631 16.098-24.707 12.625-43.614 37.961-46.346 64.977zM653.673 319.163l9.867 22.673 40.857-17.864-9.867-22.673-40.857 17.864zM710.247 294.42100000000005l9.867 22.673 40.469-17.683-9.867-22.673-40.469 17.683z"  horiz-adv-x="1024" />

    
    <glyph glyph-name="720_quanjing" unicode="&#58909;" d="M451.183 39.972999999999956l208.469-83.583-208.469-83.583 40.536 83.583zM511.333-81.00699999999995c-129.535 0-251.788 23.948-344.239 67.433-99.65 46.871-154.53 111.882-154.53 183.056 0 30.883 10.354 60.802 30.774 88.925 18.358 25.284 44.618 48.645 78.047 69.434 14.07 8.751 32.569 4.438 41.318-9.633 8.75-14.07 4.437-32.569-9.633-41.318-51.916-32.285-80.507-70.43-80.507-107.407 0-45.939 43.763-92.871 120.068-128.762 84.627-39.805 197.811-61.727 318.701-61.727 16.569 0 30-13.432 30-30s-13.43-30.001-29.999-30.001zM774.634-42.97199999999998c-12.698 0-24.49 8.125-28.566 20.867-5.049 15.78 3.651 32.666 19.433 37.714 113.867 36.428 184.603 95.388 184.603 153.872 0 38.52-30.737 77.968-86.55 111.077-14.249 8.454-18.948 26.858-10.495 41.108 8.453 14.249 26.857 18.947 41.108 10.495 35.517-21.07 63.454-44.919 83.037-70.885 21.83-28.946 32.899-59.83 32.899-91.796 0-45.532-23.012-89.6-66.547-127.437-38.678-33.614-93.927-62.517-159.774-83.582a30.02 30.02 0 0 0-9.148-1.433zM362.606 805.124L243.368 503.698h-73.262l119.238 275.645H132.938V836.491h229.668v-31.367zM624.286 503.698H407.293v54.57l95.605 91.738c20.051 19.191 34.086 35.305 42.11 48.34 8.02 13.032 12.031 26.567 12.031 40.605 0 31.652-16.973 47.48-50.918 47.48-28.504 0-56.074-11.46-82.715-34.375v61.66c28.5 18.906 60.871 28.359 97.11 28.359 32.797 0 58.793-8.345 77.988-25.029 19.191-16.688 28.789-39.783 28.789-69.287 0-38.96-23.633-79.781-70.898-122.461L487 562.78v-1.289h137.286v-57.793zM670.263 664.616c0 57.578 10.598 101.547 31.797 131.914 21.195 30.363 51.848 45.547 91.953 45.547 76.484 0 114.727-56.578 114.727-169.727 0-55.718-10.387-98.721-31.152-129.014-20.77-30.293-50.777-45.439-90.02-45.439-78.204 0-117.305 55.571-117.305 166.719z m70.254 1.719c0-76.773 16.398-115.156 49.199-115.156 32.227 0 48.34 39.531 48.34 118.594 0 79.348-15.684 119.023-47.051 119.023-33.66 0-50.488-40.82-50.488-122.461z"  horiz-adv-x="1024" />

    
    <glyph glyph-name="114__ruzhu" unicode="&#58930;" d="M718.285 246.98000000000002c-69.429 0-130.494 30.877-143.044 37.686-11.216 4.472-80.257 31.084-135.623 31.084-50.165 0-116.052-22.9-137.196-31.738a34.353 34.353 0 0 0-32.325 3.129A34.424 34.424 0 0 0 254.8 315.75V762.769c0 13.996 8.493 26.58 21.425 31.84 3.71 1.516 91.67 36.93 166.975 36.93 75.923 0 157.38-35.83 160.818-37.34a32.114 32.114 0 0 0 3.716-1.926c0.415-0.239 50.483-29.504 107.698-29.504 56.945 0 105.53 29.06 106.015 29.367 10.692 6.4 23.892 6.67 34.76 0.582 10.8-6.12 17.541-17.53 17.541-29.95V315.75c0-11.66-5.92-22.49-15.683-28.845-2.475-1.652-62.413-39.926-139.78-39.926zM439.617 384.52c74.072 0 160.038-35.522 163.68-37.032 1.31-0.552 2.58-1.167 3.818-1.888 0.484-0.278 53.576-29.85 111.169-29.85 36.52 0 68.532 12.036 86.684 20.563v373.47c-24.415-8.39-55.562-15.787-89.54-15.787-69.598 0-128.465 31.016-140.775 37.963-10.59 4.474-75.234 30.81-131.456 30.81-42.016 0-91.847-14.613-119.626-24.074v-374.46c32.15 9.835 75.85 20.286 116.046 20.286z m90.269-447.02H151.639V797.153c0 18.983 15.404 34.388 34.387 34.388 18.973 0 34.384-15.405 34.384-34.388v-790.87h309.476c19.013 0 34.384-15.375 34.384-34.392 0-19.014-15.371-34.39-34.384-34.39z m-343.859 0h-67.705c-18.983 0-34.389 15.376-34.389 34.389 0 19.012 15.406 34.387 34.39 34.387h67.704c18.979 0 34.384-15.375 34.384-34.387 0-19.013-15.406-34.388-34.384-34.388z m0 0"  horiz-adv-x="1024" />

    
    <glyph glyph-name="tuandui" unicode="&#58965;" d="M610.304 340.99199999999996a241.208889 241.208889 0 1 1-182.044444 0A364.088889 364.088889 0 0 1 153.6-9.898667000000046a22.755556 22.755556 0 1 1 47.331556 0 318.577778 318.577778 0 0 0 637.155555 0 22.755556 22.755556 0 1 1 47.331556 0 364.088889 364.088889 0 0 1-275.114667 350.890667z m-284.444444 221.411556a193.877333 193.877333 0 1 0 193.877333-191.829334 192.967111 192.967111 0 0 0-193.877333 191.829334zM665.827556 562.403556a22.755556 22.755556 0 1 1-47.331556 0 98.986667 98.986667 0 0 0-197.973333 0 22.755556 22.755556 0 1 1-47.331556 0 146.318222 146.318222 0 0 1 292.636445 0zM823.296 354.64533300000005a177.493333 177.493333 0 0 1-21.390222 324.266667 22.755556 22.755556 0 0 1-16.384-44.373333 130.844444 130.844444 0 0 0-45.511111-253.724445 22.755556 22.755556 0 0 1-22.755556-22.755555 22.755556 22.755556 0 0 1 1.365333-6.371556 22.755556 22.755556 0 0 1-1.365333-6.371555 22.755556 22.755556 0 0 1 22.755556-22.755556 221.184 221.184 0 0 0 222.094222-219.591111 22.755556 22.755556 0 1 1 47.331555 0 267.605333 267.605333 0 0 1-186.140444 251.676444zM308.565333 344.632889a22.755556 22.755556 0 0 1-1.365333 6.371555 22.755556 22.755556 0 0 1 1.365333 6.371556 22.755556 22.755556 0 0 1-22.755555 22.755556 130.844444 130.844444 0 0 0-45.511111 253.724444 22.755556 22.755556 0 1 1-16.384 44.373333 177.493333 177.493333 0 0 1-21.390223-324.266666 267.605333 267.605333 0 0 1-186.823111-252.586667 22.755556 22.755556 0 1 1 47.331556 0 221.184 221.184 0 0 0 222.094222 219.591111 22.755556 22.755556 0 0 1 23.438222 23.665778z"  horiz-adv-x="1024" />

    
    <glyph glyph-name="jiantou__you" unicode="&#58966;" d="M335.985778 128.11377800000002l303.945955 303.945955 48.287289-48.287289-303.968711-303.945955zM335.780978 640.068267l48.264533 48.241777 303.968711-303.9232-48.287289-48.287288z"  horiz-adv-x="1024" />

    
    <glyph glyph-name="icon-x" unicode="&#59275;" d="M941.576 711.752l-101.824 101.824L512 485.824 184.248 813.576 82.424 711.752 410.168 384l-327.744-327.752 101.824-101.824L512 282.17600000000004l327.752-327.752 101.824 101.824L613.832 384z"  horiz-adv-x="1024" />

    
    <glyph glyph-name="nav__shoucang" unicode="&#58890;" d="M744.64-65.856a93.44 93.44 0 0 0-44.032 11.072l-188.288 101.376-188.224-101.312a94.4 94.4 0 0 0-96.832 5.184 90.048 90.048 0 0 0-38.016 88.704l36.864 220.224-159.104 158.848A88.448 88.448 0 0 0 45.44 510.336a91.136 91.136 0 0 0 73.344 60.416l216.384 32.128 94.016 195.2a92.672 92.672 0 0 0 166.208 0l94.016-195.2 216.384-32.128c34.112-5.056 62.272-28.16 73.344-60.352 11.136-32.512 2.88-67.84-21.568-92.16l-159.168-158.848 36.928-220.288a90.112 90.112 0 0 0-37.952-88.64 92.992 92.992 0 0 0-52.736-16.32z m-232.384 171.776a28.16 28.16 0 0 0 13.184-3.328l201.408-108.416a38.208 38.208 0 0 1 38.976 2.112 33.792 33.792 0 0 1 14.592 33.536l-39.232 234.496a27.84 27.84 0 0 0 7.744 24.32l169.344 169.024a33.408 33.408 0 0 1 8.256 34.688 35.84 35.84 0 0 1-28.864 23.424l-230.976 34.368a27.648 27.648 0 0 0-20.992 15.424l-100.48 208.384a36.48 36.48 0 0 1-32.96 20.16 36.672 36.672 0 0 1-33.024-20.16L378.88 565.504a27.776 27.776 0 0 0-20.992-15.424l-230.976-34.368a36.224 36.224 0 0 1-28.864-23.488 33.28 33.28 0 0 1 8.192-34.624l169.344-169.088a27.648 27.648 0 0 0 7.744-24.192l-39.232-234.432a33.664 33.664 0 0 1 14.656-33.6c11.2-7.68 26.752-8.576 39.04-1.984l201.28 108.352a28.288 28.288 0 0 0 13.184 3.264z m0 0"  horiz-adv-x="1024" />

    
    <glyph glyph-name="nav_fenlei" unicode="&#58927;" d="M575.68 160a160.32 160.32 0 1 1 160.32 160.32H599.893333c-13.461333 0-24.192-10.752-24.192-24.192V160zM736 362.66666699999996A202.666667 202.666667 0 1 0 533.333333 160V296.106667A66.432 66.432 0 0 0 599.872 362.66666699999996H736zM490.666667 160a202.666667 202.666667 0 1 0-202.666667 202.666667h136.128A66.432 66.432 0 0 0 490.666667 296.12800000000004V160z m-202.666667 160.32a160.32 160.32 0 1 1 160.32-160.32V296.106667c0 13.44-10.730667 24.192-24.192 24.192H288zM533.333333 608.021333A202.666667 202.666667 0 1 0 736 405.333333H599.893333A66.432 66.432 0 0 0 533.333333 471.872V608z m202.666667-160.341333a160.32 160.32 0 1 1-160.32 160.32v-136.128c0-13.44 10.730667-24.192 24.192-24.192H736zM448.32 608a160.32 160.32 0 1 1-160.32-160.32h136.128c13.461333 0 24.192 10.752 24.192 24.192V608zM288 405.333333A202.666667 202.666667 0 1 0 490.666667 608v-136.128A66.432 66.432 0 0 0 424.128 405.333333H288z"  horiz-adv-x="1024" />

    
    <glyph glyph-name="shoucang" unicode="&#58886;" d="M327.728136 91.69872399999997l150.60509 60.966537 33.721009 13.627369 33.721009-13.627369 150.609183-60.914348-4.484128 166.562527-0.907673 32.985252 20.663622 25.711592 96.563266 120.353089L652.842749 484.425224l-30.030967 9.081843-17.825994 25.716708-92.931552 134.033669-92.871177-134.033669-17.825994-25.716708-30.033014-9.081843-155.490354-47.120181 96.566336-120.29476 20.663622-25.711592-0.907673-32.985252L327.728136 91.69872399999997M789.940197-43.129031000000055L512.054235 69.27296899999999 234.17339-43.129031000000055l8.115841 303.886125L62.389956 484.824313l282.879696 85.667102L512.054235 811.130054l166.843936-240.638639 282.711873-85.667102L781.766027 260.756071 789.940197-43.129031000000055 789.940197-43.129031000000055 789.940197-43.129031000000055z"  horiz-adv-x="1024" />

    
    <glyph glyph-name="pinglun-reply" unicode="&#58960;" d="M989.610667 29.041778000000022h-275.228445L574.606222-128l-139.662222 157.041778H119.722667C43.975111 29.041778000000022 0 72.19200000000001 0 146.77333299999998V778.325333C0 852.849778 47.900444 896 119.722667 896H969.671111c75.776 0 135.566222-43.150222 139.662222-117.674667V146.77333299999998c0-74.581333-47.900444-117.731556-119.722666-117.731555zM227.555556 327.11111100000005h455.111111v85.333333H227.555556v-85.333333zM824.888889 640H227.555556v-85.333333h597.333333V640z"  horiz-adv-x="1109" />

    
    <glyph glyph-name="114__lei" unicode="&#58904;" d="M381.803 754.191H218.435c-45.041 0-81.684-36.644-81.684-81.684v-163.368c0-45.041 36.643-81.684 81.684-81.684h163.368c45.04 0 81.684 36.643 81.684 81.684V672.506c0 45.041-36.644 81.685-81.684 81.685z m27.228-245.052c0-15.014-12.215-27.228-27.228-27.228H218.435c-15.014 0-27.228 12.214-27.228 27.228V672.506c0 15.013 12.214 27.228 27.228 27.228h163.368c15.013 0 27.228-12.215 27.228-27.228v-163.367zM381.803 372.99800000000005H218.435c-45.041 0-81.684-36.643-81.684-81.684v-163.367c0-45.041 36.643-81.684 81.684-81.684h163.368c45.04 0 81.684 36.643 81.684 81.684V291.31399999999996c0 45.041-36.644 81.684-81.684 81.684z m27.228-245.051c0-15.014-12.215-27.229-27.228-27.229H218.435c-15.014 0-27.228 12.214-27.228 27.229V291.31399999999996c0 15.013 12.214 27.229 27.228 27.229h163.368c15.013 0 27.228-12.215 27.228-27.229v-163.367zM599.625 426.734h163.368c45.041 0 81.684 36.643 81.684 81.684V671.7860000000001c0 45.041-36.643 81.684-81.684 81.684H599.625c-45.041 0-81.684-36.643-81.684-81.684v-163.367c0-45.042 36.643-81.685 81.684-81.685z m-27.227 245.052c0 15.013 12.214 27.228 27.229 27.228h163.368c15.013 0 27.228-12.215 27.228-27.228v-163.367c0-15.014-12.214-27.228-27.228-27.228H599.626c-15.014 0-27.229 12.214-27.229 27.228l0.001 163.367zM681.311 291.31399999999996c-45.041 0-81.684-36.643-81.684-81.684 0-15.038 12.189-27.228 27.228-27.228 15.038 0 27.228 12.189 27.228 27.228 0 15.013 12.214 27.229 27.228 27.229 15.038 0 27.228 12.189 27.228 27.228 0 15.038-12.19 27.227-27.228 27.227zM875.21 54.238000000000056l-60.785 60.785c19.042 26.713 30.254 59.376 30.254 94.608 0 90.081-73.286 163.367-163.368 163.367-90.081 0-163.368-73.286-163.368-163.367 0-90.082 73.288-163.368 163.368-163.368 35.232 0 67.894 11.211 94.608 30.252l60.785-60.785c10.59-10.59 27.917-10.59 38.507 0 10.588 10.59 10.588 27.918-0.001 38.508zM572.398 209.63099999999997c0 60.054 48.858 108.912 108.913 108.912 60.056 0 108.913-48.857 108.913-108.912 0-60.056-48.857-108.913-108.913-108.913-60.055 0-108.913 48.857-108.913 108.913z"  horiz-adv-x="1024" />

    
    <glyph glyph-name="toutiao_yanjing" unicode="&#58919;" d="M512 128c-157.098667 0-299.306667 85.333333-426.666667 256 127.36 170.666667 269.568 256 426.666667 256 157.098667 0 299.306667-85.333333 426.666667-256-127.36-170.666667-269.568-256-426.666667-256z m0 128a128 128 0 1 1 0 256 128 128 0 0 1 0-256z"  horiz-adv-x="1024" />

    
    <glyph glyph-name="xiaoxi" unicode="&#58911;" d="M316.256 407.684m-49.313 0a49.313 49.313 0 1 1 98.626 0 49.313 49.313 0 1 1-98.626 0ZM510.424 407.684m-49.313 0a49.313 49.313 0 1 1 98.626 0 49.313 49.313 0 1 1-98.626 0ZM707.674 407.684m-49.313 0a49.313 49.313 0 1 1 98.626 0 49.313 49.313 0 1 1-98.626 0ZM822.759 691.522C739.074 762.959 628.155 802.184 510.423 802.184c-117.858 0-228.781-39.348-312.33-110.662-41.123-35.019-73.336-75.899-95.992-121.616-23.572-47.627-35.49-98.18-35.49-150.266 0-61.129 17.156-121.867 49.5-175.863 28.289-47.121 68.358-89.267 116.42-122.635l-6.198-102.808c-0.128-23.933 6.667-40.667 15.333-48 4.226-3.576 13.97-6.667 19.333-6.667 5.37 0 13.829 1.603 18.677 4.283l137.894 77.426c33.429 16.958 61.683 23.286 92.853 23.286 117.863 0 228.781 7.655 312.329 78.969 41.123 35.024 73.336 75.899 95.992 121.616 23.572 47.627 38.573 98.18 38.573 150.266 0.132 52.214-15.001 102.767-38.573 150.394h0.005c-22.654 45.588-54.873 86.597-95.99 121.615z m-312.335-570.38c-30.901 0-68.091-5.475-74.091-6.808-7.56-1.68-31.319-8.178-38-12l-124.667-68L281 145.667c-1.667 5.667 3.333 13.333 0.252 17.118-96.52 61.507-165.141 154.98-165.141 256.727 0 177.261 184.129 330.278 394.312 330.278 210.056 0 394.501-136.611 394.501-330.278s-184.444-298.37-394.5-298.37z"  horiz-adv-x="1024" />

    
    <glyph glyph-name="toutiao" unicode="&#58952;" d="M1026.77 723.153v-635.1c-11.079-0.514-22.16-0.971-33.234-1.559-18.778-0.996-37.555-2.044-56.325-3.13-17.218-0.994-34.429-2.13-51.649-3.089-29.071-1.616-58.146-3.111-87.218-4.714-17.739-0.979-35.47-2.082-53.207-3.098-27.513-1.578-55.024-3.13-82.54-4.694-18.255-1.037-36.51-2.065-54.766-3.114-26.994-1.555-53.986-3.12-80.98-4.69-17.736-1.03-35.47-2.112-53.207-3.101-28.551-1.596-57.107-3.112-85.659-4.707-17.737-0.992-35.47-2.106-53.207-3.095-28.552-1.597-57.107-3.112-85.658-4.705-17.739-0.994-35.47-2.106-53.208-3.098-28.553-1.595-57.109-3.112-85.659-4.705-17.739-0.993-35.47-2.094-53.208-3.099-19.012-1.075-38.028-2.094-57.042-3.136C0 243.05700000000002 0 455.798 0 668.538c6.398 0.517 12.787 1.18 19.194 1.523 30.375 1.62 60.757 3.135 91.133 4.725 19.041 0.999 38.078 2.078 57.117 3.1 29.338 1.574 58.676 3.144 88.015 4.692 20.078 1.059 40.159 2.06 60.236 3.116 29.339 1.55 58.677 3.109 88.015 4.697 18.52 1.003 37.036 2.102 55.558 3.091 20.336 1.089 40.676 2.1 61.013 3.141 20.34 1.044 40.682 2.05 61.02 3.123 29.078 1.536 58.154 3.117 87.233 4.682 19.3 1.038 38.595 2.091 57.897 3.11 20.077 1.06 40.156 2.1 60.235 3.126 20.6 1.055 41.198 2.073 61.797 3.126 20.08 1.028 40.158 2.065 60.236 3.124 19.299 1.02 38.596 2.085 57.898 3.105 20.057 1.06 40.115 2.09 60.173 3.134zM791.846 454.998c9.122 4.348 16.96 8.01 24.738 11.804 28.208 13.763 56.3 27.774 84.652 41.237 8.458 4.015 12.842 8.73 11.899 18.977-1.163 12.632-0.278 25.452-0.278 38.192v35.243c-6.506-0.786-12.008-1.749-17.548-2.07-28.806-1.672-57.628-3.141-86.437-4.759-16.962-0.953-33.906-2.228-50.872-3.052-24.748-1.203-49.509-2.124-74.262-3.185-2.577-0.112-5.154-0.591-7.713-0.49-4.168 0.168-8.797-0.388-12.404 1.216-18.597 8.274-36.929 17.138-56.097 26.142-1.044-1.313-2.313-2.631-3.267-4.15-23.38-37.286-46.584-74.682-70.248-111.788-3.253-5.101-0.977-6.21 2.76-7.562 16.463-5.965 33.226-11.21 49.339-18.003 8.436-3.556 11.28-0.332 15.154 6.216 10.23 17.295 21.19 34.163 32.055 51.077 1.187 1.847 3.53 3.889 5.532 4.111 8.43 0.94 16.936 1.234 25.414 1.742 17.473 1.046 34.943 2.22 52.427 3.074 24.23 1.186 48.47 2.106 72.704 3.198 2.803 0.125 5.584 0.757 8.387 0.92 12.748 0.737 25.497 1.39 37.761 2.047 3.081-8.205-0.997-11.152-7.017-14.061-33.29-16.082-66.36-32.61-99.637-48.714-2.783-1.344-6.937-1.814-9.762-0.786-21.707 7.906-43.229 16.32-64.836 24.502-17.048 6.458-17.063 6.406-27.185-8.597-1.284-1.904-2.686-3.73-3.934-5.655-5.624-8.656-11.214-17.334-17.024-26.331 17.346-6.422 33.7-12.472 50.696-18.764-28.408-14.158-55.866-27.964-83.478-41.438-3.284-1.603-7.425-1.709-11.206-1.967-8.854-0.608-17.728-0.889-26.55-1.3v-48.27c15.53 0 30.666-0.164 45.793 0.124 3.423 0.066 7.07 1.175 10.178 2.696 37.527 18.373 75.053 36.742 112.388 55.5 13.267 6.665 25.13 9.393 40.332 2.726 28.533-12.518 58.245-22.441 87.756-32.605 14.77-5.085 28.756-13.803 45.47-11.746 6.365 0.783 12.795 1.047 19.186 1.612 6.816 0.603 13.626 1.285 20.214 1.91v50.258c-6.549-0.767-12.38-1.908-18.233-2.016-6.893-0.126-14.135-0.547-20.632 1.276-12.196 3.422-23.994 8.294-35.908 12.694-16.365 6.049-32.683 12.218-50.307 18.815z m-467.551 111.67v-213.873c-19.903-1.42-38.894-2.955-57.91-4.092-28.813-1.724-57.637-3.262-86.466-4.697-14.71-0.736-29.45-0.922-44.161-1.66-9.181-0.461-18.336-1.496-27.599-2.279v-50.12l148.796 8.298c-18.551-24.619-36.92-48.46-54.64-72.774-7.283-9.993-15.034-15.821-28.477-14.504-12.213 1.196-24.735-0.532-37.104-1.254-8.937-0.522-17.847-1.508-27.49-2.351 0-15.201-0.161-30.48 0.236-45.743 0.043-1.616 3.45-4.598 5.156-4.5 29.5 1.718 58.97 3.946 88.466 5.781 13.661 0.85 27.366 0.99 41.034 1.75 1.89 0.106 4.237 1.52 5.432 3.058 8.927 11.483 17.58 23.181 26.388 34.756 21.638 28.438 43.18 56.949 65.066 85.194 5.826 7.52 10.197 16.904 22.232 17.396 28.839 1.178 57.647 3.052 86.472 4.565 12.115 0.635 24.257 0.862 36.346 1.794 1.926 0.15 5.162 3.005 5.214 4.686 0.417 14.03 0.349 28.08 0.046 42.117-0.031 1.367-2.668 3.884-4.02 3.831-16.2-0.603-32.39-1.516-48.574-2.5-12.796-0.778-25.579-1.767-39.4-2.732V570.749l-75.043-4.082z m211.12-277.317c2.62 0 4.636-0.11 6.64 0.018 15.392 1.002 30.775 2.25 46.179 3.027 15.48 0.782 30.986 1.08 46.477 1.664 2.809 0.106 5.596 0.68 8.403 0.834 14.811 0.829 29.624 1.592 45.31 2.423v-106.995l76.341 4.167V301.097c6.934 0.832 13 1.835 19.113 2.244 17.72 1.182 35.452 2.276 53.19 3.126 24.745 1.189 49.499 2.117 74.247 3.183 1.974 0.084 3.94 0.368 5.85 0.552v51.112c-13.892-1.121-27.357-2.519-40.858-3.226-24.474-1.285-48.974-2.134-73.462-3.231-2.537-0.115-5.046-0.836-7.584-0.993-10.089-0.622-20.183-1.13-30.864-1.713v24.63c-25.63-1.548-50.634-3.062-76.425-4.624v-24.11c-20.112-1.4-39.34-2.996-58.6-4.013-24.733-1.307-49.497-2.052-74.24-3.257-6.555-0.32-13.075-1.444-19.717-2.213v-49.213z m-175.872 4.681l-0.817-2.97 59.071-115.9 82.906 4.509c-0.176 1.956-0.078 2.524-0.284 2.932-17.304 34.074-34.78 68.063-51.85 102.251-4.08 8.173-9.103 12.29-18.77 10.915-9.393-1.336-18.988-1.497-28.504-1.673-13.913-0.254-27.834-0.064-41.752-0.064z m175.111-112.35c4.185 0 7.037-0.126 9.876 0.019 19.549 1.002 39.081 2.346 58.64 2.92 5.506 0.159 7.912 1.977 10.338 6.79 11.693 23.227 23.958 46.163 35.956 69.236 3.717 7.148 7.236 14.405 11.504 22.925-7.914-0.777-14.244-1.673-20.606-1.968-14.96-0.692-29.94-0.987-44.903-1.67-7.005-0.32-12.666-2.104-15.584-10.121-3.027-8.309-8.153-15.842-12.238-23.777-10.823-21.03-21.579-42.094-32.983-64.355z m396.868 22.674c-0.21 1.246-0.08 2.663-0.668 3.646-16.487 27.473-33.045 54.906-49.593 82.342-2.227 3.69-4.925 5.73-9.82 5.372-18.486-1.348-37.012-2.156-55.514-3.279-4.373-0.265-8.72-0.969-13.86-1.56 17.552-29.144 34.412-57.287 51.52-85.281 1.38-2.256 4.454-4.959 6.725-4.945 16.274 0.1 32.55 0.691 48.813 1.458 7.362 0.346 14.69 1.449 22.397 2.247zM282.254 375.90999999999997c-0.183 1.014-0.11 1.633-0.383 1.978-15.825 20.075-32.053 39.847-47.366 60.303-7.398 9.882-15.331 15.257-28.332 13.655-16.064-1.981-32.339-2.244-48.514-3.36-5.691-0.39-11.362-1.11-17.116-1.687 0.267-1.606 0.183-2.231 0.455-2.575 16.2-20.436 32.673-40.663 48.535-61.359 6.691-8.73 13.554-13.94 25.622-12.657 19.71 2.097 39.62 2.304 59.433 3.503 2.618 0.157 5.17 1.455 7.666 2.2z m0.895 93.535c-2.532 3.558-4.315 6.294-6.327 8.853-13.246 16.843-26.81 33.445-39.723 50.538-8.24 10.907-15.938 20.08-32.283 16.817-12.488-2.494-25.695-1.28-38.566-2.016-8.539-0.491-17.048-1.518-26.708-2.41 19.966-25.465 39.227-50.153 58.74-74.637 1.28-1.607 4.54-2.431 6.816-2.32 16.408 0.802 32.802 1.897 49.195 2.986 9.187 0.61 18.364 1.388 28.856 2.189z"  horiz-adv-x="1026" />

    
    <glyph glyph-name="114__fenlei" unicode="&#58887;" d="M67.482 677.369h251.969c22.681 0 40.933 18.331 40.933 41.011s-18.254 40.933-40.933 40.933H67.482c-22.603 0-40.933-18.254-40.933-40.933 0-22.603 18.331-41.011 40.933-41.011zM67.482 312.076h286.533c22.603 0 40.933 18.254 40.933 40.933 0 22.603-18.331 40.933-40.933 40.933H67.482c-22.603 0-40.933-18.331-40.933-40.933 0-22.681 18.331-40.933 40.933-40.933zM897.332 38.28099999999995H67.481c-22.603 0-40.933-18.254-40.933-40.855 0-22.681 18.331-41.011 40.933-41.011h829.851c22.603 0 40.855 18.331 40.855 41.011 0 22.525-18.254 40.855-40.855 40.855zM986.112 284.89099999999996l-89.324 93.44c38.214 45.905 61.205 104.78 61.205 168.938 0 145.791-118.528 264.397-264.397 264.397S429.045 693.06 429.045 547.269s118.683-264.397 264.551-264.397c52.118 0 100.663 15.379 141.597 41.555l91.808-96.081c8.078-8.389 18.719-12.582 29.515-12.582 10.253 0 20.428 3.651 28.35 11.34 16.234 15.534 16.855 41.476 1.243 57.788zM693.597 364.65999999999997c-100.741 0-182.608 81.943-182.608 182.608s81.867 182.53 182.608 182.53c100.663 0 182.608-81.867 182.608-182.53-0.078-100.663-81.943-182.608-182.608-182.608z"  horiz-adv-x="1024" />

    
    <glyph glyph-name="share" unicode="&#58925;" d="M0 0v-128l53.12 99.2c99.2 165.12 286.08 262.4 515.84 270.08v-312.32l568.96 483.2L568.96 896v-313.6A590.72 590.72 0 0 1 0 0z m64 82.56a537.6 537.6 0 0 0 533.12 443.52h28.8v256l426.24-367.36-426.24-366.72V298.88h-28.8A694.4 694.4 0 0 1 64 81.91999999999996z"  horiz-adv-x="1137" />

    
    <glyph glyph-name="score" unicode="&#58953;" d="M511.973 113.93200000000002c-190.203 0-354.914 91.148-432.507 222.931 30.449-169.894 212.2-300.606 432.516-300.606 220.298 0 402.058 130.694 432.498 300.606-77.585-131.783-242.304-222.931-432.507-222.931zM511.973-15.254999999999995c-190.203 0-354.914 91.13-432.507 222.913 30.449-169.894 212.2-300.606 432.516-300.606 220.298 0 402.058 130.712 432.498 300.606-77.585-131.783-242.304-222.913-432.507-222.913zM499.526 375.283c12.701-1.198 24.267-1.271 34.68-0.363 10.404 0.908 19.646 2.796 27.708 5.538 8.053 2.742 14.907 6.319 20.554 10.622 5.647 4.285 10.077 9.296 13.264 14.871 2.769 4.83 3.958 9.859 3.613 15.052-0.345 5.193-2.224 10.549-5.61 16.069-3.377 5.502-8.261 11.167-14.616 16.977-6.337 5.792-14.144 11.711-23.386 17.757l-56.207-96.523zM514.342 166.31500000000005c241.623 0 437.5 157.076 437.5 350.81 0 193.753-195.877 350.828-437.5 350.828-241.614 0-437.491-157.076-437.491-350.828 0-193.735 195.877-350.81 437.491-350.81zM251.076 490.797l114.979-16.668c-0.182-7.771 0.527-15.216 2.233-22.315 1.716-7.099 4.439-13.836 8.289-20.19 3.858-6.355 8.842-12.329 15.079-17.866 6.246-5.556 13.754-10.694 22.624-15.361l67.562 113.553c-26.972 14.907-48.697 28.888-65.737 42.07-16.986 13.146-29.314 25.51-37.53 37.24-8.189 11.693-12.292 22.751-12.846 33.3-0.545 10.531 2.442 20.554 8.434 30.213 8.933 14.398 21.207 26.273 36.187 35.715 14.943 9.405 32.601 16.414 52.337 21.135 19.718 4.703 41.543 7.118 64.866 7.317 23.313 0.2 48.152-1.798 73.899-5.919l20.272 34.062 83.15-19.137-20.753-35.642c20.027-6.827 37.222-14.616 51.738-23.277 14.553-8.697 26.427-18.266 35.805-28.67 9.396-10.422 16.287-21.661 20.844-33.681 4.557-12.038 6.773-24.857 6.8-38.366L687.67 584.706c-1.289 4.721-2.823 9.314-4.775 13.781-1.943 4.448-4.303 8.77-7.226 12.91-2.923 4.158-6.409 8.116-10.613 11.893-4.203 3.758-9.124 7.317-14.925 10.64l-60.29-103.531c28.261-14.598 51.239-28.27 69.396-41.325 18.221-13.091 31.593-25.547 40.581-37.676 9.015-12.165 13.636-23.985 14.326-35.769 0.699-11.82-2.551-23.604-9.26-35.66-7.626-13.727-18.665-25.819-32.882-35.969-14.244-10.15-31.666-18.339-52.02-24.185-20.381-5.846-43.686-9.333-69.623-10.113-25.955-0.763-54.525 1.162-85.419 6.173l-22.524-38.674-87.625 21.171 23.232 39.074c-23.459 8.243-43.604 17.83-60.508 28.633-16.868 10.767-30.486 22.751-40.944 35.751-10.431 12.982-17.712 26.999-21.924 41.906-4.207 14.851-5.369 30.593-3.571 47.061zM516.04 569.435l52.492 88.243c-11.13 1.017-21.507 1.035-31.003 0.182-9.496-0.853-18.102-2.596-25.701-5.066s-14.181-5.683-19.6-9.496c-5.429-3.813-9.687-8.243-12.646-13.146-2.551-4.212-3.858-8.625-3.813-13.255 0.045-4.612 1.443-9.46 4.321-14.507 2.878-5.048 7.236-10.313 13.182-15.797 5.946-5.502 13.499-11.221 22.768-17.158z"  horiz-adv-x="1024" />

    
    <glyph glyph-name="114__dingwei" unicode="&#58885;" d="M516.320553 830.086277C327.473365 829.240951 174.512778 674.914838 175.350878 486.045975c0.787526-177.21493 282.974557-496.596289 315.154731-532.417865a39.737529 39.737529 0 0 1 59.440119 0.2601c31.862273 36.110576 311.202653 357.991787 310.415127 535.213942-0.838101 188.861638-155.178664 341.822225-344.040302 340.984125z m2.196402-492.860961c-76.483906-0.339575-139.009102 61.614845-139.348677 138.105976-0.339575 76.491131 61.629295 139.001877 138.105976 139.334227 76.512806 0.3468 139.023552-61.60762 139.363127-138.091526 0.339575-76.498356-61.614845-139.001877-138.120426-139.348677z"  horiz-adv-x="1024" />

    
    <glyph glyph-name="mall__daipingjia" unicode="&#58880;" d="M940.6 798.9H83.3v-0.1c-11 0-20-9-20-20.1v-691.1c0-11.1 9-20 20-20h179.4v-118.8c0-16.8 19.5-26.2 32.6-15.6l166.8 134.4h478.5c11 0 20 8.9 20 20V778.8c0 11.1-9 20.1-20 20.1zM574.6 297l-298 2.8v67.3l298-2.8V297z m167.2 2.8h-77.5v67.3h77.5v-67.3z m0.1 194H276.6v67.3h465.3v-67.3z"  horiz-adv-x="1024" />

    
    <glyph glyph-name="mall__daishouhuo" unicode="&#58882;" d="M711.6 174.79999999999995c-56.7 0-102.8-46-102.8-102.8s46-102.8 102.8-102.8 102.8 46 102.8 102.8-46 102.8-102.8 102.8zM937.7 769H381.2c-12 0-21.7-9.7-21.7-21.7v-135.1h-97.4c-11.3 0-21.9-5.6-28.1-15.1L95.1 385.5c-3.7-5.8-4.9-12.1-4.9-18.5H85c-12 0-21.7-9.7-21.7-21.7v-251.6c0-12 9.7-21.7 21.7-21.7h91.3c0 75.9 61.5 137.3 137.3 137.3S450.9 147.79999999999995 450.9 72H572c0 75.9 61.6 137.3 137.4 137.3S846.7 147.79999999999995 846.7 72h91c12 0 21.7 9.7 21.7 21.7V747.3c0 12-9.7 21.7-21.7 21.7zM359.5 388.7c0-12-9.7-21.7-21.7-21.7H163.4l116.8 178h79.3v-156.3zM315.9 174.79999999999995c-56.8 0-102.8-46-102.8-102.8s46-102.8 102.8-102.8 102.8 46 102.8 102.8-46 102.8-102.8 102.8z"  horiz-adv-x="1024" />

    
    <glyph glyph-name="mall__daifahuo" unicode="&#58883;" d="M110 776.6h794.3v-61.1H110zM933.5 640.8h-299v-305.1c0-8.6-9.8-13.7-16.8-8.6l-110.1 79.2-100.3-78c-6.9-5.4-17.1-0.4-17.1 8.4V640.8h-299c-14.8 0-26.9-12.1-26.9-26.9v-598c0-14.9 12.1-26.9 26.9-26.9h842.4c14.8 0 26.9 12 26.9 26.9V614c-0.1 14.8-12.2 26.8-27 26.8zM724.2 68c-19.7 0-35.6 16-35.6 35.6 0 19.7 16 35.7 35.6 35.7 19.7 0 35.7-16 35.7-35.7 0-19.6-16-35.6-35.7-35.6z m115.8 0c-19.7 0-35.6 16-35.6 35.6 0 19.7 16 35.7 35.6 35.7 19.7 0 35.6-16 35.6-35.7 0.1-19.6-15.9-35.6-35.6-35.6z"  horiz-adv-x="1024" />

    
    <glyph glyph-name="mall__daifukuan" unicode="&#58884;" d="M956.8 772.5c0 14-11.4 25.4-25.4 25.4H92.9c-14 0-25.4-11.4-25.4-25.4v-779.3c0-14 11.4-25.4 25.4-25.4h838.4c14 0 25.4 11.4 25.4 25.4v260H594.8c-22.9 0-41.5 18.5-41.5 41.5V471c0 22.9 18.6 41.5 41.5 41.5h361.9v260h0.1zM869.4 382.79999999999995m-45.2 0a45.2 45.2 0 1 1 90.4 0 45.2 45.2 0 1 1-90.4 0Z"  horiz-adv-x="1024" />

    
    <glyph glyph-name="business-hours" unicode="&#59244;" d="M192.512 291.84c-29.696 0-44.032-25.6-44.032-76.8s14.336-77.824 44.032-77.824c28.672 0 43.008 25.6 43.008 76.8 0 52.224-14.336 77.824-43.008 77.824zM421.888 290.816h-35.84v-63.488h35.84c14.336 0 23.552 3.072 28.672 9.216 5.12 6.144 8.192 13.312 8.192 21.504 0 9.216-3.072 17.408-9.216 23.552-6.144 6.144-15.36 9.216-27.648 9.216zM883.712 534.528h-32.768L538.624 859.136c-3.072 3.072-7.168 6.144-10.24 8.192-5.12 3.072-10.24 5.12-16.384 5.12-6.144 0-11.264-1.024-16.384-5.12-4.096-2.048-7.168-5.12-10.24-8.192L173.056 534.528h-32.768C64.512 534.528 3.072 473.088 3.072 397.312v-364.544c0-75.776 61.44-137.216 137.216-137.216h744.448c75.776 0 137.216 61.44 137.216 137.216V397.312c-1.024 75.776-62.464 137.216-138.24 137.216zM512 796.672l252.928-262.144H259.072L512 796.672zM267.264 128c-17.408-23.552-43.008-35.84-76.8-35.84-31.744 0-57.344 12.288-74.752 35.84-17.408 24.576-26.624 53.248-26.624 87.04 0 34.816 9.216 63.488 26.624 87.04 17.408 23.552 43.008 34.816 75.776 34.816s58.368-12.288 75.776-36.864c17.408-24.576 25.6-53.248 25.6-84.992 1.024-34.816-8.192-63.488-25.6-87.04z m241.664 98.304c-5.12-11.264-11.264-20.48-19.456-26.624-8.192-6.144-16.384-10.24-24.576-12.288-8.192-2.048-20.48-3.072-37.888-3.072h-38.912v-88.064h-56.32V333.824h94.208c20.48 0 36.864-2.048 48.128-7.168 11.264-4.096 21.504-12.288 29.696-23.552 9.216-11.264 13.312-25.6 13.312-41.984-2.048-12.288-4.096-23.552-8.192-34.816zM716.8 288.768H603.136v-49.152h89.088v-45.056h-89.088v-52.224H716.8v-47.104H546.816V333.824H716.8v-45.056z m217.088-193.536h-48.128l-93.184 160.768v-8.192c0-4.096 1.024-7.168 1.024-10.24v-142.336h-43.008V333.824h60.416l80.896-140.288c-1.024 7.168-1.024 12.288-1.024 15.36V333.824h43.008v-238.592z"  horiz-adv-x="1024" />

    
    <glyph glyph-name="choujiang" unicode="&#58973;" d="M511.52-39.07218750000004c-231.935625 0-420 188.2565625-420 420.48 0 232.224375 188.064375 420.48 420 420.48 231.984375 0 420-188.255625 420-420.48 0-232.2234375-188.015625-420.48-420-420.48z m0 871.0078125c-248.495625 0-449.9521875-201.695625-449.9521875-450.5278125 0-248.784375 201.4565625-450.5278125 449.9521875-450.5278125 248.544375 0 450 201.744375 450 450.5278125 0 248.784375-201.455625 450.5278125-450 450.5278125zM346.4 381.264375l0.0478125 1.15125-277.44 1.72875-0.095625-2.88c0-80.64 21.984375-156.144375 60.1434375-220.8965625l239.424375 138.384375a164.544375 164.544375 0 0 0-22.08 82.5121875z m83.52 143.615625L294.56 763.055625A437.135625 437.135625 0 0 1 129.295625 602.4l239.424375-138.384375a165.6 165.6 0 0 0 61.2 60.864375z m164.9278125-1.1521875l134.544375 230.015625a432.2878125 432.2878125 0 0 1-217.96875 62.8321875v-270.1434375a164.16 164.16 0 0 0 83.424375-22.704375zM289.7121875 2.255625000000009a432.48 432.48 0 0 1 214.1278125-56.495625c2.544375 0 4.9921875 0.095625 7.4878125 0.144375V216.046875a163.64625 163.64625 0 0 0-83.3278125 22.6565625L289.664375 2.255625000000009z m592.655625 593.56875L654.224375 463.92c14.5434375-25.104375 22.2234375-53.664375 22.175625-82.704375v-0.96l262.415625-1.63125 0.0965625 2.59125c0 78.0965625-20.64 151.2965625-56.544375 214.60875zM593.0721875 237.69562499999995l131.6634375-231.646875a436.9921875 436.9921875 0 0 1 157.824375 160.9434375L654.415625 298.895625a166.0190625 166.0190625 0 0 0-61.3434375-61.2zM631.424375 381.264375a120.1921875 120.1921875 0 0 1-120 120.1434375L436.446875 644.064375l18.24-154.224375c-37.775625-20.255625-63.2634375-62.6878125-63.2634375-108.575625a120.095625 120.095625 0 0 1 120-117.024375 120.095625 120.095625 0 0 1 120 117.024375z m-118.2721875-62.20875a60.6721875 60.6721875 0 0 0-53.52 91.48875 60.6721875 60.6721875 0 0 0 113.0878125-30.72c0-33.12-26.495625-60.1921875-59.56875-60.76875z"  horiz-adv-x="1024" />

    
    <glyph glyph-name="dianhua_kong" unicode="&#59101;" d="M706.048 197.63199999999995c-26.112 25.088-77.312 67.584-125.44 67.584-15.872 0-31.232-4.608-43.008-13.312l-30.72-22.016c-48.128 10.24-97.792 52.224-132.608 113.152-35.328 60.928-47.104 124.416-31.744 171.52l34.816 15.36c44.032 19.968 58.368 76.8 40.448 160.768C402.944 757.76 353.28 885.248 270.336 885.248c-8.192 0-15.872-1.024-23.552-3.584L188.416 862.72C137.728 846.336 99.84 804.352 89.6 752.64c-31.232-151.552 8.192-337.92 108.032-512 100.352-173.568 242.176-301.056 389.12-349.696 14.848-5.12 30.208-7.168 46.08-7.168 36.352 0 71.68 13.312 98.816 37.888l45.568 41.472c16.384 14.848 39.936 48.64 15.872 111.616-14.848 37.888-48.128 84.992-87.04 122.88z m37.888-197.632l-45.568-41.472c-17.92-16.384-40.96-25.088-65.536-25.088-10.24 0-20.48 1.536-30.72 5.12-135.68 44.544-267.264 163.84-361.984 327.168C146.432 428.544 109.056 602.624 138.24 742.4c7.168 34.304 32.256 61.952 65.536 72.704L262.144 834.56c2.56 1.024 5.632 1.536 8.192 1.536 38.912 0 81.92-80.384 98.304-155.648C380.416 624.64 375.808 583.6800000000001 356.352 574.976l-52.736-23.552-1.536-2.56c-29.184-61.44-18.432-150.016 28.16-230.912s117.76-134.656 185.856-139.776h3.072l46.592 33.792c3.584 2.56 8.192 4.096 14.336 4.096 46.08 0 139.264-89.088 165.888-158.72 7.68-18.944 13.312-44.032-2.048-57.344z m169.472 623.616c-54.784 108.032-147.968 187.904-263.168 225.28-2.56 1.024-5.12 1.024-7.68 1.024-10.752 0-20.48-6.656-23.552-17.408-4.096-12.8 3.072-27.136 15.872-31.232 102.4-33.28 185.344-104.448 233.984-200.704 48.64-95.744 57.344-205.312 23.552-307.712-4.096-12.8 3.072-27.136 15.872-31.232 2.56-1.024 5.12-1.024 7.68-1.024 10.752 0 20.48 6.656 23.552 17.408 37.888 115.2 28.16 238.08-26.112 345.6zM603.648 706.56c-2.56 1.024-5.12 1.024-7.68 1.024-10.752 0-20.48-6.656-23.552-17.408-4.096-12.8 3.072-27.136 15.872-31.232 64-20.992 116.224-65.536 146.944-125.952s35.84-128.512 14.848-192.512c-4.096-12.8 3.072-27.136 15.872-31.232 2.56-1.024 5.12-1.024 7.68-1.024 10.752 0 20.48 6.656 23.552 16.896 25.088 76.8 18.432 158.72-17.92 230.912-36.864 71.68-99.328 125.44-175.616 150.528z m-62.464-190.464c53.76-17.408 82.944-75.264 65.536-129.024-4.096-12.8 3.072-27.136 15.872-31.232 2.56-1.024 5.12-1.024 7.68-1.024 10.752 0 20.48 7.168 23.552 17.408 26.112 79.872-17.92 165.888-97.28 192-2.56 1.024-5.12 1.024-7.68 1.024-10.752 0-20.48-6.656-23.552-16.896-4.096-13.824 3.072-27.648 15.872-32.256z"  horiz-adv-x="1024" />

    
    <glyph glyph-name="fenlei" unicode="&#58979;" d="M729.87234 416.680851c-24.031319 0-43.574468-18.606298-43.574468-41.74434v-69.021958C686.297872 282.907234 705.841021 264.170213 729.87234 264.170213s43.574468 18.737021 43.574469 41.74434v69.021958C773.446809 398.074553 753.90366 416.680851 729.87234 416.680851M862.295149 51.48323400000004c0-15.054979-11.176851-30.001021-24.358128-32.615489l-412.606638-81.745702c-2.83234-0.588255-5.773617-0.827915-8.714894-0.827915-17.429787 0-29.543489 10.915404-29.543489 26.580425V805.49583c0 18.257702 17.429787 29.892085 38.258383 25.730723l412.715574-81.723915c13.181277-2.745191 24.358128-17.691234 24.358128-32.637276v-665.382128h-0.108936zM200.791149 28.23625500000003c-22.005106-3.442383-39.434894 5.817191-39.434894 14.597447V725.297021c0 8.780255 17.538723 18.148766 39.304171 14.597447l122.88-19.695659v-672.266894l-122.749277-19.69566zM850.137872 812.249872L437.705532 893.864851A104.992681 104.992681 0 0 1 416.615489 896c-52.136851 0-92.966128-39.739915-92.966127-90.634894v-20.392851l-112.857873 18.018043a124.906213 124.906213 0 0 1-19.782808 1.546893C138.065702 804.537191 98.042553 770.374809 98.042553 725.057362v-682.354383c0-45.317447 40.001362-79.349106 92.966128-79.349107 6.470809 0 13.07234 0.457532 19.782808 1.525107l112.966809 18.148766v-20.392851c0-50.764255 40.851064-90.634894 92.966128-90.634894 7.080851 0 14.139915 0.718979 20.959319 2.026213l412.606638 81.723915C893.363745-35.70927700000004 925.957447 5.3378719999999475 925.957447 51.134637999999995V716.865362c-0.217872 45.796766-32.724426 86.843915-75.797787 95.38451z"  horiz-adv-x="1024" />

    
    </font>
</defs>
</svg>
